SplineFontDB: 3.0
FontName: nkCherokee
FullName: nkCherokee
FamilyName: nkCherokee
Weight: Book
Copyright: Copyright (c) 2002, 2011, Neil Kandalgaonkar. <neilk@brevity.org> \n\nThis work is licensed under a Creative Commons Attribution-ShareAlike 3.0 Unported License. <http://creativecommons.org/licenses/by-sa/3.0/>\n\nCreated with FontForge <http://fontforge.sourceforge.net/>.
Version: 0.30
ItalicAngle: 0
UnderlinePosition: -120
UnderlineWidth: 120
Ascent: 1638
Descent: 410
LayerCount: 2
Layer: 0 1 "Back"  1
Layer: 1 1 "Fore"  0
XUID: [1021 806 40858217 7923451]
FSType: 12
OS2Version: 1
OS2_WeightWidthSlopeOnly: 0
OS2_UseTypoMetrics: 1
CreationTime: 1029743298
ModificationTime: 1297849182
PfmFamily: 17
TTFWeight: 400
TTFWidth: 5
LineGap: 202
VLineGap: 0
Panose: 2 0 5 0 4 0 0 0 0 0
OS2TypoAscent: 421
OS2TypoAOffset: 1
OS2TypoDescent: -20
OS2TypoDOffset: 1
OS2TypoLinegap: 202
OS2WinAscent: 0
OS2WinAOffset: 1
OS2WinDescent: 0
OS2WinDOffset: 1
HheadAscent: -365
HheadAOffset: 1
HheadDescent: 76
HheadDOffset: 1
OS2SubXSize: 409
OS2SubYSize: 409
OS2SubXOff: 0
OS2SubYOff: 409
OS2SupXSize: 409
OS2SupYSize: 409
OS2SupXOff: 0
OS2SupYOff: 409
OS2StrikeYSize: 102
OS2StrikeYPos: 530
OS2Vendor: 'PfEd'
OS2CodePages: 00000001.00000000
OS2UnicodeRanges: 00000103.00000000.00000000.00000000
Lookup: 258 0 0 "'kern' Horizontal Kerning in Latin lookup 0"  {"'kern' Horizontal Kerning in Latin lookup 0 subtable"  } ['kern' ('DFLT' <'dflt' > 'latn' <'dflt' > ) ]
DEI: 91125
ShortTable: maxp 16
  1
  0
  194
  107
  4
  79
  5
  2
  0
  1
  1
  0
  64
  0
  3
  2
EndShort
LangName: 1033 "" "" "" "PfaEdit 1.0 : nkCherokee : 19-7-2072" 
GaspTable: 1 65535 2
Encoding: UnicodeBmp
UnicodeInterp: none
NameList: Adobe Glyph List
DisplaySize: -24
AntiAlias: 1
FitToEm: 1
WinInfo: 48 24 10
BeginChars: 65538 194

StartChar: exclam
Encoding: 33 33 4
Width: 1310
Flags: W
LayerCount: 2
Fore
SplineSet
1142 1489 m 1,0,-1
 1142 1313 l 1,1,-1
 398 1313 l 1,2,-1
 398 0 l 1,3,-1
 200 0 l 1,4,-1
 200 1489 l 1,5,-1
 1142 1489 l 1,0,-1
EndSplineSet
EndChar

StartChar: quotedbl
Encoding: 34 34 5
Width: 940
Flags: W
LayerCount: 2
Fore
SplineSet
772 1556 m 1,0,-1
 729 977 l 1,1,-1
 597 977 l 1,2,-1
 554 1556 l 1,3,-1
 772 1556 l 1,0,-1
386 1556 m 1,4,-1
 343 977 l 1,5,-1
 211 977 l 1,6,-1
 168 1556 l 1,7,-1
 386 1556 l 1,4,-1
EndSplineSet
EndChar

StartChar: numbersign
Encoding: 35 35 6
Width: 1271
Flags: W
LayerCount: 2
Fore
SplineSet
895 1074 m 1,0,-1
 895 1489 l 1,1,-1
 1091 1489 l 1,2,-1
 1091 376 l 2,3,4
 1091 220 1091 220 979 105 c 0,5,6
 866 -10 866 -10 696 -27 c 0,7,8
 671 -30 671 -30 645 -30 c 0,9,10
 364 -30 364 -30 236 179 c 0,11,12
 150 320 150 320 150 528 c 0,13,14
 150 704 150 704 250 864 c 1,15,16
 355 1030 355 1030 518 1091 c 0,17,18
 595 1120 595 1120 678 1120 c 0,19,20
 815 1120 815 1120 895 1074 c 1,0,-1
895 893 m 1,21,22
 792 944 792 944 707 944 c 0,23,24
 597 944 597 944 495 849 c 1,25,26
 387 750 387 750 358 609 c 0,27,28
 350 569 350 569 350 528 c 0,29,30
 350 359 350 359 426 251 c 0,31,32
 505 140 505 140 645 140 c 0,33,34
 815 140 815 140 872 264 c 0,35,36
 895 313 895 313 895 377 c 2,37,-1
 895 893 l 1,21,22
EndSplineSet
EndChar

StartChar: dollar
Encoding: 36 36 7
Width: 1083
Flags: W
LayerCount: 2
Fore
SplineSet
398 730 m 1,0,-1
 398 0 l 1,1,-1
 200 0 l 1,2,-1
 200 1489 l 1,3,-1
 398 1489 l 1,4,-1
 398 905 l 1,5,-1
 895 905 l 1,6,-1
 895 730 l 1,7,-1
 398 730 l 1,0,-1
EndSplineSet
EndChar

StartChar: percent
Encoding: 37 37 8
Width: 1648
Flags: W
LayerCount: 2
Fore
SplineSet
821 454 m 0,0,1
 821 652 821 652 697 719 c 0,2,3
 647 745 647 745 584 745 c 0,4,5
 452 745 452 745 389 640 c 1,6,7
 347 568 347 568 347 454 c 0,8,9
 347 263 347 263 460 188 c 0,10,11
 514 153 514 153 584 153 c 0,12,13
 705 153 705 153 770 251 c 0,14,15
 821 328 821 328 821 454 c 0,0,1
1071 1313 m 1,16,-1
 1071 1271 l 2,17,18
 1071 1127 1071 1127 1210 1076 c 0,19,20
 1260 1058 1260 1058 1320 1056 c 1,21,-1
 1495 1056 l 1,22,-1
 1495 886 l 1,23,-1
 1320 886 l 2,24,25
 1104 886 1104 886 1026 1015 c 1,26,-1
 1000 1065 l 1,27,28
 1000 962 1000 962 932 907 c 0,29,30
 895 878 895 878 850 875 c 1,31,32
 945 822 945 822 987 653 c 0,33,34
 1010 561 1010 561 1010 455 c 0,35,36
 1010 166 1010 166 828 41 c 0,37,38
 723 -31 723 -31 584 -31 c 0,39,40
 401 -31 401 -31 287 81 c 0,41,42
 157 209 157 209 157 455 c 0,43,44
 157 768 157 768 363 878 c 0,45,46
 459 930 459 930 584 930 c 0,47,48
 810 930 810 930 858 1148 c 0,49,50
 866 1181 866 1181 869 1219 c 1,51,-1
 870 1271 l 1,52,-1
 870 1313 l 1,53,-1
 472 1313 l 1,54,-1
 472 1489 l 1,55,-1
 1494 1489 l 1,56,-1
 1494 1313 l 1,57,-1
 1071 1313 l 1,16,-1
EndSplineSet
EndChar

StartChar: ampersand
Encoding: 38 38 9
Width: 1717
Flags: W
LayerCount: 2
Fore
SplineSet
931 1062 m 1,0,1
 818 854 818 854 781 639 c 0,2,3
 769 574 769 574 769 523 c 0,4,5
 769 310 769 310 829 196 c 0,6,7
 868 121 868 121 923 121 c 0,8,9
 995 121 995 121 1039 250 c 0,10,11
 1077 363 1077 363 1077 523 c 0,12,13
 1077 670 1077 670 1016 860 c 0,14,15
 980 971 980 971 931 1062 c 1,0,1
929 1320 m 1,16,17
 998 1433 998 1433 1072 1478 c 0,18,19
 1140 1519 1140 1519 1226 1519 c 0,20,21
 1401 1519 1401 1519 1491 1396 c 0,22,23
 1564 1296 1564 1296 1564 1129 c 2,24,-1
 1564 1019 l 1,25,-1
 1387 1019 l 1,26,-1
 1387 1129 l 2,27,28
 1387 1309 1387 1309 1282 1348 c 0,29,30
 1257 1358 1257 1358 1226 1358 c 0,31,32
 1134 1358 1134 1358 1038 1194 c 1,33,-1
 1037 1191 l 1,34,35
 1200 930 1200 930 1254 685 c 0,36,37
 1273 597 1273 597 1273 523 c 0,38,39
 1273 265 1273 265 1181 116 c 0,40,41
 1090 -31 1090 -31 923 -31 c 0,42,43
 599 -31 599 -31 575 434 c 1,44,45
 573 523 573 523 573 523 c 1,46,47
 573 740 573 740 740 1047 c 0,48,49
 778 1118 778 1118 824 1189 c 1,50,51
 776 1271 776 1271 703 1321 c 1,52,53
 651 1358 651 1358 606 1358 c 0,54,55
 442 1358 442 1358 435 1140 c 1,56,-1
 576 1140 l 1,57,-1
 576 987 l 1,58,-1
 126 987 l 1,59,-1
 126 1140 l 1,60,-1
 265 1140 l 1,61,62
 270 1338 270 1338 378 1439 c 0,63,64
 463 1519 463 1519 606 1519 c 0,65,66
 793 1519 793 1519 929 1320 c 1,16,17
EndSplineSet
EndChar

StartChar: quotesingle
Encoding: 39 39 10
Width: 550
Flags: W
LayerCount: 2
Fore
SplineSet
386 1556 m 1,0,-1
 343 977 l 1,1,-1
 207 977 l 1,2,-1
 164 1556 l 1,3,-1
 386 1556 l 1,0,-1
EndSplineSet
EndChar

StartChar: parenright
Encoding: 41 41 12
Width: 930
Flags: W
LayerCount: 2
Fore
SplineSet
510 752 m 0,0,1
 510 1001 510 1001 396 1243 c 0,2,3
 328 1388 328 1388 236 1487 c 0,4,5
 191 1534 191 1534 145 1566 c 1,6,-1
 388 1566 l 1,7,8
 713 1269 713 1269 713 752 c 256,9,10
 713 235 713 235 388 -62 c 1,11,-1
 145 -62 l 1,12,13
 291 39 291 39 393 250 c 0,14,15
 510 491 510 491 510 752 c 0,0,1
EndSplineSet
EndChar

StartChar: asterisk
Encoding: 42 42 13
Width: 1845
Flags: W
LayerCount: 2
Fore
SplineSet
1043 752 m 0,0,1
 1043 1224 1043 1224 831 1321 c 0,2,3
 830 1321 830 1321 828 1322 c 0,4,5
 772 1347 772 1347 700 1347 c 0,6,7
 434 1347 434 1347 375 998 c 0,8,9
 357 893 357 893 357 752 c 0,10,11
 357 138 357 138 700 138 c 0,12,13
 1042 138 1042 138 1043 752 c 0,0,1
1453 680 m 1,14,-1
 1253 680 l 1,15,16
 1236 276 1236 276 1033 92 c 0,17,18
 896 -32 896 -32 700 -32 c 0,19,20
 430 -32 430 -32 285 179 c 0,21,22
 145 382 145 382 145 752 c 0,23,24
 145 1255 145 1255 400 1432 c 0,25,26
 524 1517 524 1517 700 1517 c 0,27,28
 952 1517 952 1517 1098 1331 c 0,29,30
 1099 1330 1099 1330 1100 1328 c 1,31,-1
 1101 1328 l 1,32,33
 1102 1325 1102 1325 1104 1323 c 0,34,35
 1238 1146 1238 1146 1253 832 c 1,36,-1
 1453 832 l 1,37,-1
 1453 1489 l 1,38,-1
 1651 1489 l 1,39,-1
 1651 0 l 1,40,-1
 1453 0 l 1,41,-1
 1453 680 l 1,14,-1
EndSplineSet
EndChar

StartChar: plus
Encoding: 43 43 14
Width: 1948
Flags: W
LayerCount: 2
Fore
SplineSet
1371 1337 m 1,0,-1
 1120 1337 l 1,1,-1
 1120 1489 l 1,2,-1
 1815 1489 l 1,3,-1
 1815 1337 l 1,4,-1
 1578 1337 l 1,5,-1
 1179 345 l 2,6,7
 1125 211 1125 211 1020 107 c 0,8,9
 879 -32 879 -32 715 -32 c 0,10,11
 480 -32 480 -32 386 155 c 0,12,13
 346 236 346 236 340 330 c 1,14,-1
 340 428 l 1,15,-1
 126 428 l 1,16,-1
 126 580 l 1,17,-1
 770 580 l 1,18,-1
 770 428 l 1,19,-1
 540 428 l 1,20,-1
 540 355 l 1,21,22
 533 236 533 236 611 177 c 0,23,24
 657 142 657 142 715 142 c 0,25,26
 817 142 817 142 913 250 c 1,27,28
 967 309 967 309 991 370 c 2,29,-1
 1041 497 l 1,30,-1
 404 1489 l 1,31,-1
 632 1489 l 1,32,-1
 1126 714 l 1,33,-1
 1371 1337 l 1,0,-1
EndSplineSet
EndChar

StartChar: comma
Encoding: 44 44 15
Width: 745
Flags: W
LayerCount: 2
Fore
SplineSet
575 285 m 1,0,-1
 316 -244 l 1,1,-1
 170 -244 l 1,2,-1
 321 285 l 1,3,-1
 575 285 l 1,0,-1
EndSplineSet
EndChar

StartChar: hyphen
Encoding: 45 45 16
Width: 1643
Flags: W
LayerCount: 2
Fore
SplineSet
516 1064 m 1,0,-1
 516 376 l 1,1,2
 518 244 518 244 609 181 c 0,3,4
 670 139 670 139 766 139 c 0,5,6
 1054 139 1054 139 1056 375 c 1,7,-1
 1056 427 l 1,8,-1
 773 427 l 1,9,-1
 773 580 l 1,10,-1
 1505 580 l 1,11,-1
 1505 427 l 1,12,-1
 1256 427 l 1,13,-1
 1256 375 l 1,14,15
 1257 191 1257 191 1112 78 c 0,16,17
 1110 77 1110 77 1109 76 c 256,18,19
 1108 75 1108 75 1107 74 c 0,20,21
 973 -28 973 -28 776 -31 c 0,22,23
 771 -31 771 -31 766 -31 c 0,24,25
 592 -31 592 -31 464 77 c 0,26,27
 346 177 346 177 324 320 c 0,28,29
 321 346 321 346 321 373 c 2,30,-1
 321 375 l 1,31,-1
 321 1064 l 1,32,-1
 101 1064 l 1,33,-1
 101 1217 l 1,34,-1
 321 1217 l 1,35,-1
 321 1489 l 1,36,-1
 516 1489 l 1,37,-1
 516 1217 l 1,38,-1
 949 1217 l 1,39,-1
 949 1064 l 1,40,-1
 516 1064 l 1,0,-1
EndSplineSet
EndChar

StartChar: period
Encoding: 46 46 17
Width: 745
Flags: W
LayerCount: 2
Fore
SplineSet
492 0 m 1,0,-1
 253 0 l 1,1,-1
 253 285 l 1,2,-1
 492 285 l 1,3,-1
 492 0 l 1,0,-1
EndSplineSet
EndChar

StartChar: slash
Encoding: 47 47 18
Width: 1268
Flags: W
LayerCount: 2
Fore
SplineSet
390 817 m 1,0,1
 448 907 448 907 627 923 c 1,2,-1
 687 926 l 1,3,4
 872 926 872 926 993 830 c 0,5,6
 1130 722 1130 722 1130 520 c 2,7,-1
 1130 0 l 1,8,-1
 930 0 l 1,9,-1
 930 520 l 1,10,11
 929 656 929 656 831 718 c 1,12,-1
 830 719 l 1,13,14
 830 719 830 719 830 719 c 1,15,16
 783 748 783 748 720 754 c 1,17,-1
 687 756 l 1,18,19
 526 756 526 756 442 678 c 0,20,21
 390 629 390 629 390 564 c 2,22,-1
 390 0 l 1,23,-1
 194 0 l 1,24,-1
 194 1484 l 1,25,-1
 390 1484 l 1,26,-1
 390 817 l 1,0,1
EndSplineSet
EndChar

StartChar: zero
Encoding: 48 48 19
Width: 1252
Flags: W
LayerCount: 2
Fore
SplineSet
876 548 m 1,0,1
 762 411 762 411 604 411 c 0,2,3
 401 411 401 411 270 519 c 0,4,5
 135 631 135 631 136 817 c 1,6,-1
 136 857 l 1,7,-1
 336 857 l 1,8,-1
 336 817 l 1,9,10
 337 668 337 668 432 616 c 0,11,12
 494 581 494 581 604 581 c 0,13,14
 745 581 745 581 823 690 c 0,15,16
 875 762 875 762 876 849 c 1,17,-1
 876 1084 l 2,18,19
 876 1250 876 1250 758 1316 c 0,20,21
 757 1316 757 1316 756 1317 c 0,22,23
 693 1351 693 1351 604 1351 c 0,24,25
 405 1351 405 1351 355 1230 c 0,26,27
 337 1184 337 1184 336 1115 c 1,28,-1
 336 1073 l 1,29,-1
 136 1073 l 1,30,-1
 136 1115 l 1,31,32
 135 1307 135 1307 278 1419 c 0,33,34
 407 1521 407 1521 604 1521 c 0,35,36
 787 1521 787 1521 918 1415 c 0,37,38
 953 1387 953 1387 980 1353 c 0,39,40
 1071 1240 1071 1240 1072 1085 c 1,41,-1
 1072 0 l 1,42,-1
 876 0 l 1,43,-1
 876 548 l 1,0,1
EndSplineSet
EndChar

StartChar: four
Encoding: 52 52 23
Width: 1482
Flags: W
LayerCount: 2
Fore
SplineSet
1397 1489 m 1,0,-1
 875 0 l 1,1,-1
 611 0 l 1,2,-1
 89 1489 l 1,3,-1
 295 1489 l 1,4,-1
 748 179 l 1,5,-1
 1187 1489 l 1,6,-1
 1397 1489 l 1,0,-1
EndSplineSet
EndChar

StartChar: five
Encoding: 53 53 24
Width: 1463
Flags: W
LayerCount: 2
Fore
SplineSet
395 802 m 1,0,-1
 990 1489 l 1,1,-1
 1232 1489 l 1,2,-1
 660 852 l 1,3,-1
 1270 0 l 1,4,-1
 1025 0 l 1,5,-1
 522 703 l 1,6,-1
 395 552 l 1,7,-1
 395 0 l 1,8,-1
 200 0 l 1,9,-1
 200 1489 l 1,10,-1
 395 1489 l 1,11,-1
 395 802 l 1,0,-1
EndSplineSet
EndChar

StartChar: six
Encoding: 54 54 25
Width: 1619
Flags: W
LayerCount: 2
Fore
SplineSet
827 882 m 1,0,1
 957 1020 957 1020 970 1143 c 1,2,-1
 972 1177 l 1,3,4
 972 1310 972 1310 883 1345 c 0,5,6
 857 1355 857 1355 827 1355 c 0,7,8
 735 1355 735 1355 699 1274 c 0,9,10
 682 1234 682 1234 682 1177 c 0,11,12
 682 1064 682 1064 773 946 c 0,13,14
 776 942 776 942 779 938 c 2,15,-1
 827 882 l 1,0,1
953 802 m 1,16,17
 1059 732 1059 732 1237 656 c 1,18,19
 1420 579 1420 579 1477 438 c 0,20,21
 1500 382 1500 382 1500 319 c 0,22,23
 1500 90 1500 90 1348 7 c 0,24,25
 1280 -31 1280 -31 1193 -31 c 0,26,27
 1060 -31 1060 -31 976 55 c 0,28,29
 886 148 886 148 886 319 c 0,30,31
 886 482 886 482 979 549 c 0,32,33
 996 561 996 561 1016 569 c 2,34,-1
 1027 573 l 1,35,36
 938 613 938 613 827 694 c 1,37,38
 716 613 716 613 627 573 c 1,39,40
 726 541 726 541 757 418 c 0,41,42
 768 373 768 373 768 319 c 0,43,44
 768 98 768 98 622 11 c 0,45,46
 550 -31 550 -31 461 -31 c 0,47,48
 316 -31 316 -31 232 66 c 0,49,50
 154 157 154 157 154 319 c 0,51,52
 154 486 154 486 310 597 c 0,53,54
 358 632 358 632 417 656 c 1,55,56
 595 732 595 732 701 802 c 1,57,58
 620 884 620 884 575 975 c 0,59,60
 520 1084 520 1084 520 1178 c 0,61,62
 520 1373 520 1373 642 1464 c 0,63,64
 718 1520 718 1520 827 1520 c 0,65,66
 984 1520 984 1520 1068 1408 c 0,67,68
 1134 1320 1134 1320 1134 1178 c 0,69,70
 1134 1085 1134 1085 1079 975 c 0,71,72
 1034 884 1034 884 953 802 c 1,16,17
1338 318 m 0,73,74
 1338 422 1338 422 1272 470 c 1,75,76
 1238 496 1238 496 1193 496 c 0,77,78
 1098 496 1098 496 1063 410 c 1,79,80
 1063 410 1063 410 1063 409 c 0,81,82
 1048 371 1048 371 1048 318 c 0,83,84
 1048 189 1048 189 1130 148 c 0,85,86
 1158 134 1158 134 1193 134 c 0,87,88
 1267 134 1267 134 1308 200 c 0,89,90
 1338 248 1338 248 1338 318 c 0,73,74
316 318 m 0,91,92
 316 207 316 207 385 158 c 0,93,94
 419 134 419 134 461 134 c 0,95,96
 545 134 545 134 583 208 c 0,97,98
 606 252 606 252 606 318 c 0,99,100
 606 452 606 452 516 486 c 0,101,102
 491 496 491 496 461 496 c 0,103,104
 383 496 383 496 342 425 c 0,105,106
 316 380 316 380 316 318 c 0,91,92
EndSplineSet
EndChar

StartChar: seven
Encoding: 55 55 26
Width: 1206
Flags: W
LayerCount: 2
Fore
SplineSet
420 863 m 1,0,1
 275 937 275 937 268 1122 c 1,2,-1
 268 1138 l 2,3,4
 268 1312 268 1312 391 1422 c 1,5,6
 497 1515 497 1515 640 1520 c 0,7,8
 645 1520 645 1520 653 1520 c 0,9,10
 803 1520 803 1520 883 1474 c 1,11,-1
 883 1302 l 1,12,-1
 858 1302 l 1,13,14
 761 1350 761 1350 653 1350 c 0,15,16
 515 1350 515 1350 473 1263 c 1,17,18
 449 1216 449 1216 449 1138 c 0,19,20
 449 937 449 937 635 909 c 0,21,22
 662 905 662 905 694 905 c 2,23,-1
 821 905 l 1,24,-1
 821 729 l 1,25,-1
 694 729 l 1,26,-1
 608 729 l 1,27,28
 427 749 427 749 365 648 c 0,29,30
 365 647 365 647 364 647 c 0,31,32
 323 578 323 578 323 443 c 0,33,34
 323 291 323 291 449 204 c 0,35,36
 541 140 541 140 649 140 c 0,37,38
 800 140 800 140 928 227 c 0,39,40
 993 272 993 272 1078 355 c 1,41,-1
 1099 355 l 1,42,-1
 1099 160 l 1,43,44
 1030 90 1030 90 906 32 c 0,45,46
 771 -30 771 -30 649 -30 c 0,47,48
 472 -30 472 -30 333 70 c 0,49,50
 178 181 178 181 148 364 c 0,51,52
 142 402 142 402 142 443 c 0,53,54
 142 709 142 709 309 816 c 0,55,56
 358 848 358 848 420 863 c 1,0,1
EndSplineSet
EndChar

StartChar: eight
Encoding: 56 56 27
Width: 1771
Flags: W
LayerCount: 2
Fore
SplineSet
121 1489 m 1,0,-1
 886 1489 l 1,1,-1
 886 376 l 1,2,3
 888 244 888 244 979 181 c 0,4,5
 1041 139 1041 139 1136 139 c 0,6,7
 1425 139 1425 139 1427 375 c 1,8,-1
 1427 630 l 1,9,-1
 1627 630 l 1,10,-1
 1627 375 l 2,11,12
 1627 182 1627 182 1474 69 c 0,13,14
 1338 -31 1338 -31 1136 -31 c 0,15,16
 962 -31 962 -31 834 77 c 0,17,18
 716 177 716 177 695 320 c 0,19,20
 691 346 691 346 691 373 c 2,21,-1
 691 375 l 1,22,-1
 691 1313 l 1,23,-1
 121 1313 l 1,24,-1
 121 1489 l 1,0,-1
EndSplineSet
EndChar

StartChar: nine
Encoding: 57 57 28
Width: 1446
Flags: W
LayerCount: 2
Fore
SplineSet
394 561 m 1,0,-1
 394 0 l 1,1,-1
 200 0 l 1,2,-1
 200 1489 l 1,3,-1
 648 1489 l 2,4,5
 1054 1489 1054 1489 1173 1246 c 0,6,7
 1218 1154 1218 1154 1218 1028 c 0,8,9
 1218 808 1218 808 1055 681 c 0,10,11
 976 620 976 620 867 589 c 1,12,-1
 1364 0 l 1,13,-1
 1107 0 l 1,14,-1
 652 561 l 1,15,-1
 394 561 l 1,0,-1
394 731 m 1,16,-1
 647 731 l 2,17,18
 953 731 953 731 1003 935 c 0,19,20
 1013 977 1013 977 1013 1028 c 0,21,22
 1013 1247 1013 1247 804 1297 c 0,23,24
 802 1297 802 1297 801 1298 c 1,25,26
 798 1298 798 1298 796 1299 c 0,27,28
 731 1313 731 1313 646 1313 c 2,29,-1
 394 1313 l 1,30,-1
 394 731 l 1,16,-1
EndSplineSet
EndChar

StartChar: colon
Encoding: 58 58 29
Width: 1545
Flags: W
LayerCount: 2
Fore
SplineSet
378 965 m 1,0,1
 378 1039 378 1039 323 1050 c 0,2,3
 315 1052 315 1052 306 1052 c 0,4,5
 252 1052 252 1052 239 997 c 1,6,-1
 235 965 l 1,7,8
 235 893 235 893 286 877 c 1,9,-1
 306 874 l 1,10,11
 356 874 356 874 372 925 c 0,12,13
 377 942 377 942 378 965 c 1,0,1
320 723 m 1,14,-1
 307 723 l 2,15,16
 193 723 193 723 136 805 c 0,17,18
 112 840 112 840 101 888 c 0,19,20
 93 924 93 924 93 966 c 0,21,22
 93 1143 93 1143 223 1190 c 0,23,24
 261 1203 261 1203 306 1203 c 0,25,26
 419 1203 419 1203 476 1124 c 1,27,-1
 477 1123 l 1,28,29
 519 1064 519 1064 520 966 c 0,30,31
 520 934 520 934 515 905 c 1,32,-1
 1000 905 l 1,33,-1
 1000 1489 l 1,34,-1
 1195 1489 l 1,35,-1
 1195 905 l 1,36,-1
 1448 905 l 1,37,-1
 1448 729 l 1,38,-1
 1195 729 l 1,39,-1
 1195 373 l 2,40,41
 1195 188 1195 188 1064 75 c 0,42,43
 939 -33 939 -33 750 -33 c 0,44,45
 531 -33 531 -33 414 97 c 0,46,47
 319 203 319 203 320 373 c 1,48,-1
 320 723 l 1,14,-1
1000 729 m 1,49,-1
 520 729 l 1,50,-1
 520 373 l 1,51,52
 522 137 522 137 750 137 c 0,53,54
 999 137 999 137 1000 374 c 1,55,-1
 1000 729 l 1,49,-1
EndSplineSet
EndChar

StartChar: semicolon
Encoding: 59 59 30
Width: 1759
Flags: W
LayerCount: 2
Fore
SplineSet
144 750 m 0,0,1
 144 1237 144 1237 386 1421 c 1,2,3
 514 1517 514 1517 699 1517 c 0,4,5
 876 1517 876 1517 1000 1417 c 0,6,7
 1033 1391 1033 1391 1059 1358 c 0,8,9
 1128 1273 1128 1273 1145 1155 c 1,10,-1
 1296 1343 l 1,11,-1
 1336 1343 l 1,12,-1
 1467 1167 l 1,13,-1
 1590 1343 l 1,14,-1
 1629 1343 l 1,15,-1
 1629 1155 l 1,16,-1
 1503 1010 l 1,17,-1
 1443 1010 l 1,18,-1
 1322 1155 l 1,19,-1
 1202 1010 l 1,20,-1
 1022 1010 l 1,21,22
 960 1347 960 1347 699 1347 c 0,23,24
 402 1347 402 1347 362 904 c 0,25,26
 356 833 356 833 356 750 c 0,27,28
 356 143 356 143 699 143 c 0,29,30
 959 143 959 143 1022 480 c 1,31,-1
 1202 480 l 1,32,-1
 1322 335 l 1,33,-1
 1443 480 l 1,34,-1
 1503 480 l 1,35,-1
 1629 335 l 1,36,-1
 1629 147 l 1,37,-1
 1590 147 l 1,38,-1
 1467 323 l 1,39,-1
 1336 147 l 1,40,-1
 1296 147 l 1,41,-1
 1145 335 l 1,42,43
 1118 143 1118 143 960 44 c 0,44,45
 846 -27 846 -27 699 -27 c 0,46,47
 426 -27 426 -27 280 187 c 0,48,49
 144 387 144 387 144 750 c 0,0,1
EndSplineSet
EndChar

StartChar: less
Encoding: 60 60 31
Width: 1290
Flags: W
LayerCount: 2
Fore
SplineSet
394 733 m 1,0,-1
 600 733 l 2,1,2
 921 733 921 733 960 960 c 0,3,4
 966 993 966 993 966 1032 c 0,5,6
 966 1256 966 1256 748 1304 c 0,7,8
 684 1318 684 1318 599 1318 c 2,9,-1
 394 1318 l 1,10,-1
 394 733 l 1,0,-1
394 563 m 1,11,-1
 394 0 l 1,12,-1
 200 0 l 1,13,-1
 200 1489 l 1,14,-1
 601 1489 l 2,15,16
 1030 1489 1030 1489 1137 1223 c 0,17,18
 1171 1140 1171 1140 1171 1032 c 0,19,20
 1171 813 1171 813 1010 686 c 0,21,22
 855 563 855 563 600 563 c 2,23,-1
 394 563 l 1,11,-1
EndSplineSet
EndChar

StartChar: equal
Encoding: 61 61 32
Width: 1960
Flags: W
LayerCount: 2
Fore
SplineSet
1563 1489 m 1,0,-1
 1602 1489 l 1,1,-1
 1737 1313 l 1,2,-1
 1860 1489 l 1,3,-1
 1899 1489 l 1,4,-1
 1899 1301 l 1,5,-1
 1773 1156 l 1,6,-1
 1713 1156 l 1,7,-1
 1590 1301 l 1,8,-1
 1466 1156 l 1,9,-1
 1413 1156 l 1,10,-1
 1292 1301 l 1,11,-1
 1172 1156 l 1,12,-1
 1102 1156 l 1,13,14
 1102 1161 1102 1161 1071 1196 c 0,15,16
 1050 1220 1050 1220 1026 1241 c 0,17,18
 903 1349 903 1349 747 1350 c 0,19,20
 640 1350 640 1350 535 1264 c 1,21,22
 383 1142 383 1142 337 916 c 0,23,24
 322 839 322 839 320 753 c 1,25,26
 328 369 328 369 558 221 c 1,27,28
 682 140 682 140 857 140 c 0,29,30
 1000 140 1000 140 1153 218 c 1,31,-1
 1153 655 l 1,32,-1
 804 655 l 1,33,-1
 804 831 l 1,34,-1
 1357 831 l 1,35,-1
 1357 740 l 1,36,-1
 1357 655 l 1,37,-1
 1357 329 l 1,38,-1
 1357 196 l 1,39,-1
 1357 113 l 1,40,41
 1243 48 1243 48 1084 4 c 0,42,43
 959 -30 959 -30 860 -30 c 0,44,45
 524 -30 524 -30 325 164 c 0,46,47
 113 371 113 371 112 753 c 0,48,49
 112 1132 112 1132 322 1342 c 0,50,51
 466 1486 466 1486 667 1514 c 0,52,53
 707 1520 707 1520 747 1520 c 0,54,55
 983 1520 983 1520 1102 1390 c 0,56,57
 1133 1357 1133 1357 1146 1327 c 1,58,-1
 1266 1489 l 1,59,-1
 1306 1489 l 1,60,-1
 1436 1313 l 1,61,-1
 1563 1489 l 1,0,-1
EndSplineSet
EndChar

StartChar: greater
Encoding: 62 62 33
Width: 1617
Flags: W
LayerCount: 2
Fore
SplineSet
774 846 m 1,0,-1
 774 1184 l 2,1,2
 774 1373 774 1373 908 1462 c 0,3,4
 996 1520 996 1520 1119 1520 c 0,5,6
 1293 1520 1293 1520 1386 1411 c 0,7,8
 1459 1326 1459 1326 1460 1190 c 1,9,-1
 1460 729 l 1,10,-1
 1270 729 l 1,11,-1
 1270 1190 l 2,12,13
 1270 1302 1270 1302 1188 1337 c 1,14,-1
 1187 1338 l 1,15,-1
 1186 1338 l 1,16,17
 1157 1350 1157 1350 1119 1350 c 0,18,19
 1044 1350 1044 1350 999 1282 c 0,20,21
 971 1239 971 1239 970 1183 c 1,22,-1
 970 455 l 2,23,24
 970 166 970 166 788 41 c 0,25,26
 682 -31 682 -31 544 -31 c 0,27,28
 361 -31 361 -31 247 81 c 0,29,30
 117 209 117 209 117 455 c 0,31,32
 117 768 117 768 323 878 c 1,33,34
 418 930 418 930 544 930 c 0,35,36
 680 930 680 930 774 846 c 1,0,-1
774 536 m 1,37,38
 748 690 748 690 626 732 c 0,39,40
 588 745 588 745 544 745 c 0,41,42
 411 745 411 745 349 640 c 0,43,44
 307 568 307 568 306 454 c 1,45,46
 306 263 306 263 420 188 c 0,47,48
 474 153 474 153 544 153 c 0,49,50
 664 153 664 153 729 250 c 0,51,52
 762 300 762 300 774 371 c 1,53,-1
 774 536 l 1,37,38
EndSplineSet
EndChar

StartChar: question
Encoding: 63 63 34
Width: 1578
Flags: W
LayerCount: 2
Fore
SplineSet
1145 1281 m 0,0,1
 1145 1355 1145 1355 1091 1367 c 1,2,-1
 1090 1367 l 1,3,-1
 1089 1367 l 1,4,-1
 1074 1369 l 1,5,6
 1020 1369 1020 1369 1007 1314 c 1,7,-1
 1006 1313 l 1,8,-1
 1006 1312 l 1,9,-1
 1003 1281 l 1,10,11
 1003 1209 1003 1209 1053 1194 c 1,12,-1
 1074 1191 l 1,13,14
 1124 1191 1124 1191 1140 1242 c 0,15,16
 1145 1259 1145 1259 1145 1281 c 0,0,1
716 195 m 1,17,-1
 1034 1043 l 1,18,19
 920 1062 920 1062 880 1168 c 0,20,21
 861 1217 861 1217 861 1283 c 0,22,23
 861 1460 861 1460 990 1506 c 0,24,25
 1029 1520 1029 1520 1074 1520 c 0,26,27
 1187 1520 1187 1520 1244 1441 c 0,28,29
 1287 1381 1287 1381 1287 1283 c 0,30,31
 1287 1241 1287 1241 1279 1205 c 1,32,-1
 1488 1205 l 1,33,-1
 1488 1052 l 1,34,-1
 1235 1052 l 1,35,-1
 841 0 l 1,36,-1
 588 0 l 1,37,-1
 317 752 l 1,38,-1
 122 752 l 1,39,-1
 122 904 l 1,40,-1
 461 904 l 1,41,-1
 716 195 l 1,17,-1
EndSplineSet
EndChar

StartChar: at
Encoding: 64 64 35
Width: 1971
Flags: W
LayerCount: 2
Fore
SplineSet
1051 454 m 2,0,1
 1051 270 1051 270 1159 191 c 1,2,-1
 1160 191 l 1,3,4
 1161 190 1161 190 1161 190 c 1,5,6
 1217 150 1217 150 1288 150 c 0,7,8
 1421 149 1421 149 1506 292 c 0,9,10
 1602 454 1602 454 1603 745 c 0,11,12
 1603 1035 1603 1035 1427 1199 c 0,13,14
 1307 1311 1307 1311 1148 1330 c 1,15,-1
 1098 1333 l 1,16,17
 865 1333 865 1333 735 1277 c 0,18,19
 674 1251 674 1251 609 1204 c 1,20,-1
 580 1204 l 1,21,-1
 580 1402 l 1,22,23
 719 1478 719 1478 860 1502 c 0,24,25
 962 1519 962 1519 1098 1519 c 0,26,27
 1352 1519 1352 1519 1538 1375 c 0,28,29
 1747 1213 1747 1213 1797 920 c 0,30,31
 1811 838 1811 838 1811 746 c 0,32,33
 1811 272 1811 272 1602 82 c 0,34,35
 1480 -30 1480 -30 1288 -31 c 0,36,37
 1173 -31 1173 -31 1051 58 c 0,38,39
 1034 70 1034 70 1018 84 c 0,40,41
 979 117 979 117 950 153 c 1,42,43
 872 48 872 48 752 -3 c 0,44,45
 685 -31 685 -31 625 -31 c 0,46,47
 442 -31 442 -31 328 81 c 0,48,49
 199 209 199 209 198 455 c 1,50,-1
 198 905 l 1,51,-1
 395 905 l 1,52,-1
 395 454 l 2,53,54
 395 265 395 265 503 188 c 0,55,56
 556 150 556 150 625 150 c 0,57,58
 734 150 734 150 797 243 c 0,59,60
 852 324 852 324 852 455 c 2,61,-1
 852 905 l 1,62,-1
 1051 905 l 1,63,-1
 1051 454 l 2,0,1
EndSplineSet
EndChar

StartChar: A
Encoding: 65 65 36
Width: 1459
Flags: W
LayerCount: 2
Fore
SplineSet
390 752 m 1,0,-1
 390 451 l 2,1,2
 390 308 390 308 490 220 c 1,3,4
 584 139 584 139 736 139 c 0,5,6
 929 139 929 139 1021 262 c 0,7,8
 1080 341 1080 341 1081 450 c 1,9,-1
 1081 752 l 1,10,-1
 390 752 l 1,0,-1
390 905 m 1,11,-1
 1081 905 l 1,12,-1
 1081 1489 l 1,13,-1
 1281 1489 l 1,14,-1
 1281 450 l 2,15,16
 1281 230 1281 230 1122 97 c 0,17,18
 980 -22 980 -22 763 -30 c 0,19,20
 750 -31 750 -31 736 -31 c 0,21,22
 529 -31 529 -31 380 78 c 0,23,24
 219 197 219 197 198 395 c 1,25,-1
 195 450 l 1,26,-1
 195 1489 l 1,27,-1
 390 1489 l 1,28,-1
 390 905 l 1,11,-1
EndSplineSet
EndChar

StartChar: B
Encoding: 66 66 37
Width: 1397
Flags: W
LayerCount: 2
Fore
SplineSet
567 140 m 1,0,1
 617 136 617 136 668 136 c 0,2,3
 1063 136 1063 136 1064 456 c 0,4,5
 1064 573 1064 573 957 659 c 0,6,7
 859 737 859 737 714 754 c 1,8,-1
 714 932 l 1,9,10
 801 959 801 959 858 1027 c 0,11,12
 903 1081 903 1081 904 1140 c 1,13,14
 904 1276 904 1276 817 1327 c 0,15,16
 778 1350 778 1350 727 1350 c 0,17,18
 647 1350 647 1350 601 1254 c 0,19,20
 567 1183 567 1183 567 1088 c 2,21,-1
 567 140 l 1,0,1
946 888 m 1,22,23
 1043 863 1043 863 1136 762 c 0,24,25
 1249 639 1249 639 1265 496 c 1,26,-1
 1268 456 l 1,27,28
 1268 223 1268 223 1093 91 c 0,29,30
 931 -31 931 -31 666 -31 c 0,31,32
 402 -31 402 -31 189 50 c 0,33,34
 143 68 143 68 116 83 c 1,35,-1
 116 272 l 1,36,-1
 132 272 l 1,37,38
 236 209 236 209 371 173 c 1,39,-1
 371 1088 l 2,40,41
 371 1362 371 1362 535 1467 c 0,42,43
 617 1520 617 1520 727 1520 c 0,44,45
 956 1520 956 1520 1049 1365 c 0,46,47
 1098 1285 1098 1285 1103 1169 c 2,48,-1
 1104 1140 l 1,49,50
 1104 981 1104 981 982 907 c 1,51,-1
 946 888 l 1,22,23
EndSplineSet
EndChar

StartChar: C
Encoding: 67 67 38
Width: 1485
Flags: W
LayerCount: 2
Fore
SplineSet
857 140 m 0,0,1
 1024 140 1024 140 1215 251 c 1,2,-1
 1215 252 l 1,3,4
 1251 272 1251 272 1291 299 c 0,5,6
 1312 313 1312 313 1336 329 c 1,7,-1
 1357 329 l 1,8,-1
 1357 113 l 1,9,10
 1243 48 1243 48 1084 4 c 0,11,12
 959 -30 959 -30 860 -30 c 0,13,14
 520 -30 520 -30 322 165 c 0,15,16
 112 372 112 372 112 753 c 0,17,18
 112 1100 112 1100 313 1307 c 0,19,20
 487 1487 487 1487 765 1515 c 0,21,22
 812 1520 812 1520 860 1520 c 0,23,24
 1029 1520 1029 1520 1172 1462 c 0,25,26
 1192 1454 1192 1454 1353 1379 c 1,27,-1
 1357 1377 l 1,28,-1
 1357 1157 l 1,29,-1
 1340 1157 l 1,30,31
 1175 1266 1175 1266 1083 1304 c 0,32,33
 971 1350 971 1350 860 1350 c 0,34,35
 591 1350 591 1350 449 1173 c 0,36,37
 325 1020 325 1020 320 753 c 1,38,39
 328 369 328 369 558 221 c 1,40,41
 682 140 682 140 857 140 c 0,0,1
EndSplineSet
EndChar

StartChar: D
Encoding: 68 68 39
Width: 1588
Flags: W
LayerCount: 2
Fore
SplineSet
665 552 m 1,0,1
 564 488 564 488 468 488 c 0,2,3
 324 488 324 488 223 581 c 0,4,5
 214 590 214 590 206 599 c 0,6,7
 119 691 119 691 118 823 c 0,8,9
 117 906 117 906 198 996 c 1,10,-1
 200 998 l 1,11,12
 200 998 200 998 201 998 c 2,13,-1
 208 1006 l 1,14,-1
 388 1006 l 1,15,-1
 388 970 l 1,16,-1
 361 943 l 1,17,18
 309 884 309 884 308 823 c 1,19,20
 308 701 308 701 389 649 c 0,21,22
 426 625 426 625 468 625 c 0,23,24
 620 625 620 625 665 767 c 1,25,-1
 665 1489 l 1,26,-1
 863 1489 l 1,27,-1
 863 1036 l 1,28,29
 968 1106 968 1106 1069 1106 c 0,30,31
 1213 1106 1213 1106 1314 1013 c 1,32,-1
 1331 995 l 2,33,34
 1418 903 1418 903 1419 771 c 0,35,36
 1420 688 1420 688 1339 598 c 1,37,-1
 1337 596 l 1,38,-1
 1335 594 l 1,39,-1
 1329 588 l 1,40,-1
 1149 588 l 1,41,-1
 1149 624 l 1,42,-1
 1176 651 l 1,43,44
 1228 710 1228 710 1229 771 c 1,45,46
 1229 893 1229 893 1148 945 c 0,47,48
 1111 969 1111 969 1069 969 c 0,49,50
 898 969 898 969 863 791 c 1,51,-1
 863 0 l 1,52,-1
 665 0 l 1,53,-1
 665 552 l 1,0,1
EndSplineSet
EndChar

StartChar: E
Encoding: 69 69 40
Width: 1634
Flags: W
LayerCount: 2
Fore
SplineSet
1135 970 m 1,0,-1
 1135 1094 l 2,1,2
 1135 1273 1135 1273 982 1326 c 0,3,4
 911 1350 911 1350 804 1350 c 0,5,6
 494 1350 494 1350 380 1092 c 0,7,8
 379 1090 379 1090 378 1088 c 0,9,10
 320 953 320 953 320 753 c 0,11,12
 320 422 320 422 510 259 c 0,13,14
 650 140 650 140 857 140 c 0,15,16
 1024 140 1024 140 1215 251 c 1,17,-1
 1215 252 l 1,18,19
 1251 272 1251 272 1291 299 c 0,20,21
 1312 313 1312 313 1336 329 c 1,22,-1
 1357 329 l 1,23,-1
 1357 113 l 1,24,25
 1243 48 1243 48 1084 4 c 0,26,27
 959 -30 959 -30 860 -30 c 0,28,29
 520 -30 520 -30 322 165 c 0,30,31
 112 372 112 372 112 753 c 0,32,33
 112 1141 112 1141 322 1344 c 0,34,35
 503 1520 503 1520 804 1520 c 0,36,37
 1097 1520 1097 1520 1233 1358 c 0,38,39
 1323 1250 1323 1250 1323 1094 c 2,40,-1
 1323 970 l 1,41,-1
 1499 970 l 1,42,-1
 1499 817 l 1,43,-1
 939 817 l 1,44,-1
 939 970 l 1,45,-1
 1135 970 l 1,0,-1
EndSplineSet
EndChar

StartChar: F
Encoding: 70 70 41
Width: 1398
Flags: W
LayerCount: 2
Fore
SplineSet
507 1063 m 1,0,1
 404 873 404 873 361 662 c 0,2,3
 344 581 344 581 344 524 c 0,4,5
 344 340 344 340 406 223 c 0,6,7
 453 135 453 135 515 135 c 0,8,9
 588 135 588 135 637 248 c 0,10,11
 686 360 686 360 686 524 c 0,12,13
 686 627 686 627 612 828 c 0,14,15
 565 955 565 955 507 1063 c 1,0,1
502 1318 m 1,16,17
 634 1466 634 1466 777 1504 c 0,18,19
 836 1519 836 1519 900 1519 c 0,20,21
 1048 1519 1048 1519 1153 1427 c 0,22,23
 1262 1331 1262 1331 1265 1180 c 1,24,25
 1265 1019 1265 1019 1152 912 c 0,26,27
 1065 830 1065 830 961 821 c 1,28,-1
 940 820 l 1,29,30
 847 820 847 820 758 882 c 0,31,32
 753 885 753 885 749 888 c 2,33,-1
 746 890 l 1,34,-1
 824 710 l 1,35,36
 865 604 865 604 865 524 c 0,37,38
 865 184 865 184 739 56 c 0,39,40
 655 -30 655 -30 515 -30 c 0,41,42
 296 -30 296 -30 211 217 c 0,43,44
 165 349 165 349 165 524 c 0,45,46
 165 732 165 732 306 1020 c 0,47,48
 349 1108 349 1108 401 1192 c 1,49,50
 273 1387 273 1387 153 1489 c 1,51,-1
 377 1489 l 1,52,53
 401 1463 401 1463 480 1349 c 1,54,-1
 502 1318 l 1,16,17
603 1188 m 1,55,-1
 622 1157 l 1,56,57
 698 1043 698 1043 821 1005 c 0,58,59
 869 990 869 990 920 990 c 0,60,61
 995 990 995 990 1043 1060 c 0,62,63
 1080 1113 1080 1113 1080 1180 c 0,64,65
 1080 1290 1080 1290 987 1331 c 0,66,67
 948 1349 948 1349 900 1349 c 0,68,69
 772 1349 772 1349 663 1249 c 0,70,71
 634 1223 634 1223 603 1188 c 1,55,-1
EndSplineSet
EndChar

StartChar: G
Encoding: 71 71 42
Width: 1513
Flags: W
LayerCount: 2
Fore
SplineSet
398 241 m 1,0,-1
 648 630 l 1,1,2
 741 786 741 786 814 849 c 0,3,4
 914 935 914 935 1053 935 c 0,5,6
 1246 935 1246 935 1326 800 c 0,7,8
 1372 723 1372 723 1372 610 c 2,9,-1
 1372 572 l 1,10,-1
 1179 572 l 1,11,-1
 1179 610 l 2,12,13
 1179 698 1179 698 1129 740 c 0,14,15
 1099 765 1099 765 1058 765 c 0,16,17
 1022 765 1022 765 997 761 c 1,18,-1
 997 0 l 1,19,-1
 794 0 l 1,20,-1
 794 577 l 1,21,-1
 433 0 l 1,22,-1
 200 0 l 1,23,-1
 200 1489 l 1,24,-1
 398 1489 l 1,25,-1
 398 241 l 1,0,-1
EndSplineSet
EndChar

StartChar: H
Encoding: 72 72 43
Width: 1750
Flags: W
LayerCount: 2
Fore
SplineSet
795 426 m 1,0,1
 908 634 908 634 945 849 c 0,2,3
 957 914 957 914 957 965 c 0,4,5
 957 1178 957 1178 897 1292 c 0,6,7
 858 1367 858 1367 803 1367 c 0,8,9
 731 1367 731 1367 687 1238 c 0,10,11
 649 1125 649 1125 649 965 c 0,12,13
 649 818 649 818 710 628 c 0,14,15
 746 517 746 517 795 426 c 1,0,1
797 168 m 1,16,17
 728 56 728 56 655 11 c 0,18,19
 586 -31 586 -31 500 -31 c 0,20,21
 339 -31 339 -31 247 84 c 0,22,23
 162 190 162 190 162 372 c 2,24,-1
 162 448 l 1,25,-1
 339 448 l 1,26,-1
 339 372 l 2,27,28
 339 209 339 209 423 153 c 0,29,30
 456 130 456 130 500 130 c 0,31,32
 592 130 592 130 688 294 c 0,33,34
 688 295 688 295 689 297 c 1,35,36
 526 558 526 558 472 803 c 0,37,38
 453 891 453 891 453 965 c 0,39,40
 453 1223 453 1223 545 1372 c 0,41,42
 636 1519 636 1519 803 1519 c 0,43,44
 1127 1519 1127 1519 1151 1054 c 1,45,-1
 1153 965 l 1,46,47
 1153 748 1153 748 986 441 c 0,48,49
 948 370 948 370 902 299 c 1,50,51
 950 217 950 217 1023 167 c 1,52,53
 1075 130 1075 130 1120 130 c 0,54,55
 1284 130 1284 130 1291 348 c 1,56,-1
 1150 348 l 1,57,-1
 1150 501 l 1,58,-1
 1600 501 l 1,59,-1
 1600 348 l 1,60,-1
 1461 348 l 1,61,62
 1456 150 1456 150 1348 49 c 0,63,64
 1262 -31 1262 -31 1120 -31 c 0,65,66
 933 -31 933 -31 797 168 c 1,16,17
EndSplineSet
EndChar

StartChar: I
Encoding: 73 73 44
Width: 1344
Flags: W
LayerCount: 2
Fore
SplineSet
899 120 m 1,0,1
 953 120 953 120 963 184 c 1,2,-1
 965 211 l 1,3,4
 965 285 965 285 910 296 c 1,5,-1
 909 297 l 1,6,-1
 908 297 l 1,7,-1
 894 298 l 1,8,9
 849 298 849 298 833 251 c 0,10,11
 828 234 828 234 828 211 c 0,12,13
 828 139 828 139 878 123 c 1,14,-1
 899 120 l 1,0,1
755 1313 m 1,15,-1
 755 1121 l 1,16,17
 977 1089 977 1089 1116 950 c 0,18,19
 1260 806 1260 806 1260 595 c 0,20,21
 1260 433 1260 433 1201 296 c 0,22,23
 1180 248 1180 248 1142 177 c 1,24,-1
 1092 88 l 2,25,26
 1041 -3 1041 -3 946 -26 c 0,27,28
 922 -31 922 -31 899 -31 c 0,29,30
 786 -31 786 -31 728 51 c 0,31,32
 686 112 686 112 686 212 c 0,33,34
 686 389 686 389 815 436 c 0,35,36
 853 449 853 449 899 449 c 0,37,38
 966 449 966 449 1006 394 c 0,39,40
 1021 372 1021 372 1026 348 c 1,41,42
 1077 399 1077 399 1077 595 c 0,43,44
 1077 762 1077 762 957 865 c 0,45,46
 859 949 859 949 709 960 c 1,47,-1
 273 0 l 1,48,-1
 72 0 l 1,49,-1
 555 1070 l 1,50,-1
 555 1313 l 1,51,-1
 160 1313 l 1,52,-1
 160 1489 l 1,53,-1
 1163 1489 l 1,54,-1
 1163 1313 l 1,55,-1
 755 1313 l 1,15,-1
EndSplineSet
EndChar

StartChar: J
Encoding: 74 74 45
Width: 1254
Flags: W
LayerCount: 2
Fore
SplineSet
344 375 m 1,0,1
 346 139 346 139 635 139 c 0,2,3
 803 139 803 139 861 264 c 0,4,5
 884 313 884 313 885 376 c 1,6,-1
 885 1489 l 1,7,-1
 1080 1488 l 1,8,-1
 1080 375 l 1,9,10
 1081 226 1081 226 973 111 c 1,11,-1
 955 93 l 1,12,13
 836 -19 836 -19 667 -30 c 1,14,-1
 635 -31 l 1,15,16
 437 -31 437 -31 300 70 c 0,17,18
 152 178 152 178 145 357 c 1,19,-1
 144 375 l 1,20,-1
 144 630 l 1,21,-1
 344 630 l 1,22,-1
 344 375 l 1,0,1
EndSplineSet
EndChar

StartChar: K
Encoding: 75 75 46
Width: 1585
Flags: W
LayerCount: 2
Fore
SplineSet
549 1062 m 0,0,1
 744 1062 744 1062 822 969 c 0,2,3
 893 885 893 885 893 707 c 0,4,5
 893 542 893 542 749 398 c 0,6,7
 636 284 636 284 493 236 c 1,8,-1
 474 230 l 1,9,10
 558 154 558 154 683 142 c 0,11,12
 711 139 711 139 743 139 c 0,13,14
 910 139 910 139 1037 264 c 0,15,16
 1182 406 1182 406 1211 646 c 0,17,18
 1217 697 1217 697 1217 752 c 0,19,20
 1217 1349 1217 1349 740 1349 c 0,21,22
 593 1349 593 1349 469 1286 c 0,23,24
 417 1259 417 1259 310 1188 c 1,25,-1
 293 1188 l 1,26,-1
 293 1397 l 1,27,-1
 450 1471 l 1,28,29
 553 1513 553 1513 688 1518 c 0,30,31
 712 1519 712 1519 740 1519 c 0,32,33
 1065 1519 1065 1519 1246 1314 c 1,34,35
 1425 1113 1425 1113 1425 752 c 0,36,37
 1425 445 1425 445 1268 233 c 0,38,39
 1124 39 1124 39 895 -14 c 0,40,41
 820 -31 820 -31 740 -31 c 0,42,43
 364 -31 364 -31 232 222 c 0,44,45
 155 369 155 369 155 604 c 0,46,47
 155 780 155 780 243 906 c 0,48,49
 351 1062 351 1062 549 1062 c 0,0,1
693 706 m 0,50,51
 693 878 693 878 585 905 c 1,52,-1
 584 905 l 1,53,54
 567 909 567 909 549 909 c 0,55,56
 494 909 494 909 436 850 c 0,57,58
 347 759 347 759 345 612 c 1,59,60
 345 466 345 466 381 387 c 1,61,-1
 392 364 l 1,62,63
 438 364 438 364 523 433 c 0,64,65
 632 522 632 522 674 622 c 0,66,67
 693 666 693 666 693 706 c 0,50,51
EndSplineSet
EndChar

StartChar: L
Encoding: 76 76 47
Width: 1486
Flags: W
LayerCount: 2
Fore
SplineSet
780 480 m 1,0,-1
 780 0 l 1,1,-1
 582 0 l 1,2,-1
 582 905 l 1,3,-1
 780 905 l 1,4,-1
 780 650 l 1,5,-1
 859 650 l 2,6,7
 970 650 970 650 1052 731 c 0,8,9
 1151 829 1151 829 1151 996 c 0,10,11
 1151 1241 1151 1241 925 1309 c 0,12,13
 828 1339 828 1339 684 1339 c 0,14,15
 495 1339 495 1339 278 1195 c 0,16,17
 200 1144 200 1144 130 1080 c 1,18,-1
 109 1080 l 1,19,-1
 109 1282 l 1,20,21
 305 1453 305 1453 530 1503 c 0,22,23
 609 1520 609 1520 686 1520 c 0,24,25
 1251 1520 1251 1520 1346 1161 c 0,26,27
 1366 1087 1366 1087 1366 996 c 0,28,29
 1366 762 1366 762 1192 610 c 1,30,31
 1085 515 1085 515 958 487 c 0,32,33
 941 483 941 483 925 482 c 1,34,-1
 925 482 l 1,35,-1
 899 480 l 1,36,-1
 780 480 l 1,0,-1
EndSplineSet
EndChar

StartChar: M
Encoding: 77 77 48
Width: 1726
Flags: W
LayerCount: 2
Fore
SplineSet
1328 1236 m 1,0,-1
 932 410 l 1,1,-1
 780 410 l 1,2,-1
 400 1236 l 1,3,-1
 400 0 l 1,4,-1
 200 0 l 1,5,-1
 200 1489 l 1,6,-1
 475 1489 l 1,7,-1
 864 646 l 1,8,-1
 1252 1489 l 1,9,-1
 1525 1489 l 1,10,-1
 1525 0 l 1,11,-1
 1328 0 l 1,12,-1
 1328 1236 l 1,0,-1
EndSplineSet
EndChar

StartChar: N
Encoding: 78 78 49
Width: 1568
Flags: W
LayerCount: 2
Fore
SplineSet
400 752 m 1,0,-1
 400 0 l 1,1,-1
 200 0 l 1,2,-1
 200 1489 l 1,3,-1
 400 1489 l 1,4,-1
 400 905 l 1,5,-1
 1160 905 l 1,6,-1
 1160 1489 l 1,7,-1
 1360 1489 l 1,8,-1
 1360 0 l 1,9,-1
 1160 0 l 1,10,-1
 1160 752 l 1,11,-1
 400 752 l 1,0,-1
EndSplineSet
EndChar

StartChar: O
Encoding: 79 79 50
Width: 1540
Flags: W
LayerCount: 2
Fore
SplineSet
765 -30 m 2,0,1
 509 -30 509 -30 343 201 c 0,2,3
 184 421 184 421 149 784 c 0,4,5
 140 872 140 872 140 965 c 0,6,7
 140 1223 140 1223 232 1372 c 0,8,9
 323 1519 323 1519 490 1519 c 0,10,11
 814 1519 814 1519 838 1054 c 1,12,-1
 840 965 l 1,13,14
 840 755 840 755 667 499 c 0,15,16
 600 400 600 400 523 320 c 1,17,18
 585 175 585 175 699 147 c 0,19,20
 729 140 729 140 765 140 c 0,21,22
 877 140 877 140 983 240 c 0,23,24
 1118 368 1118 368 1160 584 c 0,25,26
 1175 664 1175 664 1175 751 c 0,27,28
 1175 1161 1175 1161 1019 1475 c 2,29,-1
 1012 1489 l 1,30,-1
 1228 1489 l 1,31,32
 1384 1244 1384 1244 1384 752 c 0,33,34
 1384 381 1384 381 1209 170 c 0,35,36
 1050 -21 1050 -21 788 -30 c 1,37,-1
 765 -30 l 2,0,1
427 448 m 1,38,39
 551 615 551 615 610 787 c 1,40,41
 644 883 644 883 644 958 c 0,42,43
 644 1128 644 1128 591 1249 c 0,44,45
 547 1348 547 1348 490 1348 c 0,46,47
 431 1348 431 1348 386 1238 c 1,48,-1
 386 1237 l 1,49,50
 336 1116 336 1116 336 958 c 0,51,52
 336 801 336 801 379 611 c 0,53,54
 400 519 400 519 427 448 c 1,38,39
EndSplineSet
EndChar

StartChar: P
Encoding: 80 80 51
Width: 1732
Flags: W
LayerCount: 2
Fore
SplineSet
483 448 m 1,0,1
 574 616 574 616 623 824 c 0,2,3
 644 910 644 910 644 958 c 0,4,5
 644 1128 644 1128 591 1249 c 0,6,7
 547 1348 547 1348 490 1348 c 0,8,9
 431 1348 431 1348 386 1238 c 1,10,-1
 386 1237 l 1,11,12
 336 1116 336 1116 336 958 c 0,13,14
 336 840 336 840 396 656 c 0,15,16
 434 538 434 538 483 448 c 1,0,1
482 178 m 1,17,18
 393 46 393 46 362 11 c 2,19,-1
 352 0 l 1,20,-1
 108 0 l 1,21,22
 220 95 220 95 368 320 c 1,23,24
 161 657 161 657 142 919 c 1,25,-1
 140 965 l 1,26,27
 140 1223 140 1223 232 1372 c 0,28,29
 323 1519 323 1519 490 1519 c 0,30,31
 814 1519 814 1519 838 1054 c 1,32,-1
 840 965 l 1,33,34
 840 849 840 849 760 633 c 0,35,36
 682 423 682 423 600 320 c 1,37,38
 695 168 695 168 865 145 c 0,39,40
 904 140 904 140 956 140 c 0,41,42
 1057 140 1057 140 1161 224 c 0,43,44
 1307 342 1307 342 1356 551 c 0,45,46
 1378 642 1378 642 1378 745 c 2,47,-1
 1378 888 l 1,48,49
 1341 806 1341 806 1248 801 c 1,50,-1
 1238 800 l 1,51,52
 1106 800 1106 800 1030 899 c 0,53,54
 1029 900 1029 900 1028 901 c 0,55,56
 957 996 957 996 956 1165 c 1,57,58
 956 1417 956 1417 1112 1493 c 0,59,60
 1168 1521 1168 1521 1238 1521 c 0,61,62
 1359 1521 1359 1521 1442 1437 c 0,63,64
 1478 1401 1478 1401 1502 1352 c 1,65,-1
 1521 1304 l 1,66,67
 1585 1107 1585 1107 1585 746 c 0,68,69
 1585 455 1585 455 1430 239 c 0,70,71
 1306 65 1306 65 1126 0 c 0,72,73
 1041 -30 1041 -30 956 -30 c 0,74,75
 777 -30 777 -30 631 45 c 0,76,77
 521 101 521 101 482 178 c 1,17,18
1355 1164 m 0,78,79
 1355 1319 1355 1319 1272 1347 c 1,80,-1
 1271 1347 l 1,81,82
 1256 1352 1256 1352 1239 1352 c 0,83,84
 1161 1352 1161 1352 1135 1258 c 0,85,86
 1124 1219 1124 1219 1124 1164 c 0,87,88
 1124 1019 1124 1019 1194 978 c 1,89,-1
 1195 977 l 1,90,91
 1216 966 1216 966 1240 966 c 0,92,93
 1305 966 1305 966 1336 1044 c 0,94,95
 1355 1092 1355 1092 1355 1164 c 0,78,79
EndSplineSet
EndChar

StartChar: Q
Encoding: 81 81 52
Width: 1575
Flags: W
LayerCount: 2
Fore
SplineSet
1430 0 m 1,0,-1
 175 0 l 1,1,-1
 175 176 l 1,2,-1
 704 176 l 1,3,-1
 704 1313 l 1,4,-1
 175 1313 l 1,5,-1
 175 1489 l 1,6,-1
 1430 1489 l 1,7,-1
 1430 1313 l 1,8,-1
 902 1313 l 1,9,-1
 902 176 l 1,10,-1
 1430 176 l 1,11,-1
 1430 0 l 1,0,-1
EndSplineSet
EndChar

StartChar: R
Encoding: 82 82 53
Width: 1339
Flags: W
LayerCount: 2
Fore
SplineSet
384 886 m 1,0,1
 444 924 444 924 614 924 c 0,2,3
 945 924 945 924 1083 757 c 0,4,5
 1170 653 1170 653 1170 488 c 0,6,7
 1170 190 1170 190 933 69 c 0,8,9
 796 0 796 0 598 0 c 2,10,-1
 200 0 l 1,11,-1
 200 1489 l 1,12,-1
 384 1489 l 1,13,-1
 384 886 l 1,0,1
384 731 m 1,14,-1
 384 173 l 1,15,-1
 524 173 l 2,16,17
 972 173 972 173 973 488 c 0,18,19
 973 661 973 661 799 723 c 0,20,21
 719 752 719 752 614 752 c 0,22,23
 527 752 527 752 384 731 c 1,14,-1
EndSplineSet
EndChar

StartChar: S
Encoding: 83 83 54
Width: 1315
Flags: W
LayerCount: 2
Fore
SplineSet
614 907 m 1,0,-1
 614 1258 l 1,1,-1
 320 907 l 1,2,-1
 614 907 l 1,0,-1
1024 907 m 1,3,-1
 1024 1067 l 1,4,-1
 1168 1067 l 1,5,-1
 1168 598 l 1,6,-1
 1024 598 l 1,7,-1
 1024 747 l 1,8,-1
 806 747 l 1,9,-1
 806 0 l 1,10,-1
 614 0 l 1,11,-1
 614 747 l 1,12,-1
 120 747 l 1,13,-1
 120 907 l 1,14,-1
 622 1496 l 1,15,-1
 806 1496 l 1,16,-1
 806 907 l 1,17,-1
 1024 907 l 1,3,-1
EndSplineSet
EndChar

StartChar: T
Encoding: 84 84 55
Width: 1162
Flags: W
LayerCount: 2
Fore
SplineSet
822 1313 m 1,0,-1
 145 1313 l 1,1,-1
 145 1489 l 1,2,-1
 1020 1489 l 1,3,-1
 1020 0 l 1,4,-1
 822 0 l 1,5,-1
 822 573 l 1,6,-1
 340 0 l 1,7,-1
 112 0 l 1,8,-1
 822 838 l 1,9,-1
 822 1313 l 1,0,-1
EndSplineSet
EndChar

StartChar: U
Encoding: 85 85 56
Width: 1497
Flags: W
LayerCount: 2
Fore
SplineSet
376 833 m 0,0,1
 376 907 376 907 322 919 c 1,2,-1
 305 920 l 1,3,4
 251 920 251 920 238 865 c 1,5,-1
 234 833 l 1,6,7
 234 761 234 761 284 746 c 0,8,9
 294 743 294 743 305 743 c 0,10,11
 355 743 355 743 371 793 c 0,12,13
 376 810 376 810 376 833 c 0,0,1
850 745 m 1,14,-1
 850 281 l 1,15,-1
 1154 745 l 1,16,-1
 850 745 l 1,14,-1
512 905 m 1,17,-1
 658 905 l 1,18,-1
 658 1489 l 1,19,-1
 850 1489 l 1,20,-1
 850 905 l 1,21,-1
 1344 905 l 1,22,-1
 1344 745 l 1,23,-1
 842 0 l 1,24,-1
 658 0 l 1,25,-1
 658 745 l 1,26,-1
 507 745 l 1,27,28
 477 633 477 633 372 601 c 0,29,30
 340 591 340 591 305 591 c 0,31,32
 192 591 192 591 135 674 c 0,33,34
 110 709 110 709 100 756 c 0,35,36
 92 792 92 792 92 835 c 0,37,38
 92 1011 92 1011 221 1058 c 0,39,40
 260 1072 260 1072 305 1072 c 0,41,42
 417 1072 417 1072 475 993 c 0,43,44
 501 956 501 956 512 905 c 1,17,-1
EndSplineSet
EndChar

StartChar: V
Encoding: 86 86 57
Width: 1300
Flags: W
LayerCount: 2
Fore
SplineSet
1142 0 m 1,0,-1
 200 0 l 1,1,-1
 200 1489 l 1,2,-1
 398 1489 l 1,3,-1
 398 176 l 1,4,-1
 1142 176 l 1,5,-1
 1142 0 l 1,0,-1
EndSplineSet
EndChar

StartChar: W
Encoding: 87 87 58
Width: 1602
Flags: W
LayerCount: 2
Fore
SplineSet
1495 752 m 0,0,1
 1495 325 1495 325 1246 119 c 1,2,3
 1079 -21 1079 -21 841 -31 c 1,4,-1
 807 -32 l 1,5,6
 551 -32 551 -32 374 108 c 0,7,8
 119 311 119 311 119 752 c 0,9,10
 119 1214 119 1214 401 1405 c 0,11,12
 568 1517 568 1517 807 1517 c 0,13,14
 1058 1517 1058 1517 1233 1385 c 1,15,-1
 1233 1385 l 1,16,17
 1494 1189 1494 1189 1495 752 c 0,0,1
1267 532 m 1,18,-1
 715 532 l 1,19,-1
 715 840 l 1,20,-1
 326 840 l 1,21,-1
 323 752 l 1,22,23
 323 416 323 416 499 253 c 0,24,25
 624 138 624 138 807 138 c 0,26,27
 1011 138 1011 138 1140 279 c 0,28,29
 1230 377 1230 377 1267 532 c 1,18,-1
1288 672 m 1,30,-1
 1291 752 l 1,31,32
 1291 1105 1291 1105 1095 1256 c 0,33,34
 1029 1307 1029 1307 944 1330 c 0,35,36
 879 1347 879 1347 807 1347 c 0,37,38
 585 1347 585 1347 456 1197 c 0,39,40
 384 1112 384 1112 350 985 c 1,41,-1
 899 985 l 1,42,-1
 899 672 l 1,43,-1
 1288 672 l 1,30,-1
EndSplineSet
EndChar

StartChar: X
Encoding: 88 88 59
Width: 1386
Flags: W
LayerCount: 2
Fore
SplineSet
867 306 m 1,0,1
 638 515 638 515 536 739 c 0,2,3
 443 942 443 942 443 1170 c 0,4,5
 443 1345 443 1345 539 1441 c 1,6,7
 621 1521 621 1521 757 1521 c 0,8,9
 950 1521 950 1521 1067 1318 c 0,10,11
 1179 1125 1179 1125 1187 821 c 0,12,13
 1188 801 1188 801 1188 780 c 0,14,15
 1188 474 1188 474 1047 255 c 1,16,17
 918 52 918 52 709 -6 c 0,18,19
 636 -26 636 -26 558 -26 c 0,20,21
 409 -26 409 -26 222 57 c 1,22,-1
 160 88 l 1,23,-1
 160 277 l 1,24,-1
 177 277 l 1,25,26
 347 172 347 172 467 150 c 0,27,28
 513 141 513 141 560 141 c 0,29,30
 672 141 672 141 771 206 c 0,31,32
 836 248 836 248 867 306 c 1,0,1
961 450 m 1,33,34
 993 578 993 578 993 780 c 0,35,36
 993 1024 993 1024 910 1203 c 0,37,38
 851 1331 851 1331 782 1355 c 0,39,40
 769 1359 769 1359 757 1359 c 0,41,42
 660 1359 660 1359 638 1257 c 0,43,44
 631 1222 631 1222 631 1170 c 0,45,46
 631 912 631 912 796 653 c 0,47,48
 873 531 873 531 961 450 c 1,33,34
EndSplineSet
EndChar

StartChar: Y
Encoding: 89 89 60
Width: 1277
Flags: W
LayerCount: 2
Fore
SplineSet
203 0 m 1,0,-1
 203 1114 l 2,1,2
 203 1256 203 1256 307 1371 c 0,3,4
 415 1489 415 1489 575 1514 c 0,5,6
 611 1520 611 1520 648 1520 c 0,7,8
 846 1520 846 1520 983 1419 c 0,9,10
 1131 1311 1131 1311 1138 1132 c 0,11,12
 1138 1124 1138 1124 1138 1114 c 2,13,-1
 1138 1072 l 1,14,-1
 938 1072 l 1,15,-1
 938 1114 l 2,16,17
 938 1326 938 1326 705 1348 c 0,18,19
 680 1350 680 1350 648 1350 c 0,20,21
 485 1350 485 1350 425 1232 c 1,22,23
 425 1232 425 1232 425 1232 c 1,24,25
 398 1180 398 1180 398 1113 c 2,26,-1
 398 817 l 1,27,28
 456 907 456 907 636 923 c 1,29,-1
 695 926 l 1,30,31
 880 926 880 926 1001 830 c 0,32,33
 1138 722 1138 722 1138 520 c 2,34,-1
 1138 0 l 1,35,-1
 938 0 l 1,36,-1
 938 520 l 1,37,38
 937 656 937 656 839 718 c 1,39,-1
 839 719 l 1,40,41
 838 719 838 719 838 719 c 1,42,43
 791 748 791 748 728 754 c 1,44,-1
 695 756 l 1,45,46
 533 756 533 756 450 678 c 0,47,48
 398 629 398 629 398 564 c 2,49,-1
 398 448 l 1,50,-1
 398 0 l 1,51,-1
 203 0 l 1,0,-1
EndSplineSet
EndChar

StartChar: Z
Encoding: 90 90 61
Width: 1409
Flags: W
LayerCount: 2
Fore
SplineSet
1255 0 m 1,0,-1
 197 0 l 1,1,-1
 197 184 l 1,2,-1
 1006 1313 l 1,3,-1
 217 1313 l 1,4,-1
 217 1489 l 1,5,-1
 1233 1489 l 1,6,-1
 1233 1310 l 1,7,-1
 415 176 l 1,8,-1
 1255 176 l 1,9,-1
 1255 0 l 1,0,-1
EndSplineSet
EndChar

StartChar: bracketleft
Encoding: 91 91 62
Width: 1272
Flags: W
LayerCount: 2
Fore
SplineSet
824 1172 m 1,0,-1
 824 1242 l 2,1,2
 824 1283 824 1283 768 1319 c 0,3,4
 702 1361 702 1361 600 1361 c 0,5,6
 481 1361 481 1361 420 1289 c 0,7,8
 385 1249 385 1249 385 1200 c 0,9,10
 385 1108 385 1108 499 998 c 0,11,12
 529 969 529 969 661 858 c 1,13,-1
 663 857 l 1,14,-1
 710 817 l 1,15,-1
 1172 817 l 1,16,-1
 1172 677 l 1,17,-1
 836 677 l 1,18,19
 923 601 923 601 971 486 c 0,20,21
 1000 418 1000 418 1000 360 c 0,22,23
 1000 220 1000 220 900 111 c 1,24,-1
 875 85 l 1,25,26
 749 -30 749 -30 564 -30 c 0,27,28
 378 -30 378 -30 246 50 c 1,29,-1
 148 113 l 1,30,-1
 148 329 l 1,31,-1
 169 329 l 1,32,33
 367 137 367 137 567 136 c 0,34,35
 663 136 663 136 732 204 c 0,36,37
 798 268 798 268 798 360 c 0,38,39
 798 447 798 447 665 578 c 0,40,41
 632 611 632 611 477 748 c 0,42,43
 305 900 305 900 238 998 c 1,44,45
 164 1104 164 1104 164 1200 c 0,46,47
 164 1318 164 1318 269 1408 c 0,48,49
 385 1508 385 1508 561 1517 c 1,50,-1
 591 1518 l 1,51,52
 855 1518 855 1518 948 1383 c 1,53,-1
 949 1382 l 1,54,55
 990 1323 990 1323 990 1242 c 2,56,-1
 990 1172 l 1,57,-1
 1164 1172 l 1,58,-1
 1164 1032 l 1,59,-1
 645 1032 l 1,60,-1
 645 1172 l 1,61,-1
 824 1172 l 1,0,-1
EndSplineSet
EndChar

StartChar: backslash
Encoding: 92 92 63
Width: 1694
Flags: W
LayerCount: 2
Fore
SplineSet
1113 74 m 1,0,1
 1004 -30 1004 -30 792 -30 c 0,2,3
 472 -30 472 -30 292 176 c 0,4,5
 113 381 113 381 112 753 c 0,6,7
 112 1084 112 1084 310 1294 c 0,8,9
 478 1473 478 1473 741 1516 c 0,10,11
 813 1528 813 1528 888 1528 c 0,12,13
 1098 1528 1098 1528 1257 1472 c 0,14,15
 1302 1457 1302 1457 1380 1424 c 1,16,-1
 1380 1216 l 1,17,-1
 1328 1216 l 1,18,19
 1207 1300 1207 1300 1130 1326 c 0,20,21
 1096 1338 1096 1338 1059 1345 c 0,22,23
 989 1358 989 1358 888 1358 c 0,24,25
 661 1358 661 1358 508 1225 c 0,26,27
 327 1067 327 1067 320 775 c 1,28,-1
 320 753 l 2,29,30
 320 372 320 372 530 222 c 0,31,32
 646 140 646 140 813 140 c 0,33,34
 902 140 902 140 987 204 c 1,35,-1
 1006 218 l 1,36,-1
 1006 656 l 1,37,-1
 664 656 l 1,38,-1
 664 832 l 1,39,-1
 1550 832 l 1,40,-1
 1550 656 l 1,41,-1
 1210 656 l 1,42,-1
 1210 222 l 1,43,44
 1295 142 1295 142 1352 142 c 0,45,46
 1410 142 1410 142 1492 156 c 1,47,-1
 1516 156 l 1,48,-1
 1516 13 l 1,49,50
 1442 -32 1442 -32 1360 -32 c 0,51,52
 1249 -32 1249 -32 1149 43 c 0,53,54
 1130 58 1130 58 1113 74 c 1,0,1
EndSplineSet
EndChar

StartChar: bracketright
Encoding: 93 93 64
Width: 1605
Flags: W
LayerCount: 2
Fore
SplineSet
925 851 m 1,0,-1
 1035 851 l 2,1,2
 1312 851 1312 851 1407 701 c 0,3,4
 1452 630 1452 630 1462 523 c 0,5,6
 1465 492 1465 492 1465 458 c 0,7,8
 1465 199 1465 199 1251 68 c 0,9,10
 1090 -30 1090 -30 860 -30 c 0,11,12
 520 -30 520 -30 322 165 c 0,13,14
 112 372 112 372 112 753 c 0,15,16
 112 1100 112 1100 313 1307 c 0,17,18
 487 1487 487 1487 765 1515 c 0,19,20
 812 1520 812 1520 860 1520 c 0,21,22
 1029 1520 1029 1520 1172 1462 c 0,23,24
 1192 1454 1192 1454 1353 1379 c 1,25,-1
 1357 1377 l 1,26,-1
 1357 1157 l 1,27,-1
 1340 1157 l 1,28,29
 1175 1266 1175 1266 1083 1304 c 0,30,31
 971 1350 971 1350 860 1350 c 0,32,33
 612 1350 612 1350 468 1196 c 0,34,35
 467 1194 467 1194 466 1193 c 0,36,37
 320 1036 320 1036 320 753 c 0,38,39
 320 422 320 422 510 259 c 0,40,41
 650 140 650 140 857 140 c 0,42,43
 994 140 994 140 1109 208 c 1,44,45
 1256 293 1256 293 1264 440 c 0,46,47
 1265 449 1265 449 1265 458 c 0,48,49
 1265 621 1265 621 1123 663 c 0,50,51
 1083 675 1083 675 1035 675 c 2,52,-1
 925 675 l 1,53,-1
 925 461 l 1,54,-1
 727 461 l 1,55,-1
 727 1069 l 1,56,-1
 925 1069 l 1,57,-1
 925 851 l 1,0,-1
EndSplineSet
EndChar

StartChar: asciicircum
Encoding: 94 94 65
Width: 1340
Flags: W
LayerCount: 2
Fore
SplineSet
398 176 m 1,0,-1
 1196 176 l 1,1,-1
 1196 0 l 1,2,-1
 203 1 l 1,3,-1
 203 1114 l 1,4,5
 201 1270 201 1270 305 1385 c 1,6,7
 415 1505 415 1505 586 1519 c 1,8,-1
 623 1520 l 1,9,10
 827 1520 827 1520 957 1410 c 0,11,12
 1089 1299 1089 1299 1088 1114 c 1,13,-1
 1088 859 l 1,14,-1
 888 859 l 1,15,-1
 888 1114 l 1,16,17
 887 1259 887 1259 801 1312 c 0,18,19
 738 1350 738 1350 623 1350 c 0,20,21
 401 1350 401 1350 398 1113 c 1,22,-1
 398 176 l 1,0,-1
EndSplineSet
EndChar

StartChar: underscore
Encoding: 95 95 66
Width: 1385
Flags: W
LayerCount: 2
Fore
SplineSet
540 1158 m 1,0,-1
 540 1313 l 1,1,-1
 97 1313 l 1,2,-1
 97 1489 l 1,3,-1
 540 1489 l 1,4,-1
 540 1491 l 1,5,-1
 700 1491 l 1,6,-1
 700 1489 l 1,7,-1
 1196 1489 l 1,8,-1
 1196 1313 l 1,9,-1
 700 1313 l 1,10,-1
 700 1156 l 1,11,12
 933 1130 933 1130 1072 975 c 0,13,14
 1212 819 1212 819 1212 573 c 0,15,16
 1212 265 1212 265 1024 105 c 0,17,18
 867 -29 867 -29 614 -29 c 0,19,20
 465 -29 465 -29 278 55 c 0,21,22
 241 71 241 71 216 86 c 1,23,-1
 216 275 l 1,24,-1
 233 275 l 1,25,26
 403 170 403 170 523 148 c 0,27,28
 569 139 569 139 616 139 c 0,29,30
 826 139 826 139 930 283 c 0,31,32
 999 380 999 380 1008 532 c 0,33,34
 1009 551 1009 551 1009 572 c 0,35,36
 1009 853 1009 853 821 949 c 0,37,38
 734 994 734 994 614 994 c 0,39,40
 481 994 481 994 324 909 c 0,41,42
 306 900 306 900 286 888 c 2,43,-1
 230 855 l 1,44,-1
 216 855 l 1,45,-1
 216 1047 l 1,46,47
 355 1112 355 1112 374 1119 c 0,48,49
 455 1150 455 1150 540 1158 c 1,0,-1
EndSplineSet
EndChar

StartChar: grave
Encoding: 96 96 67
Width: 1530
Flags: W
LayerCount: 2
Fore
SplineSet
1163 665 m 1,0,-1
 814 665 l 1,1,-1
 814 841 l 1,2,-1
 1367 841 l 1,3,-1
 1367 123 l 1,4,5
 1253 58 1253 58 1094 14 c 0,6,7
 969 -20 969 -20 870 -20 c 0,8,9
 530 -20 530 -20 332 175 c 0,10,11
 122 382 122 382 122 763 c 0,12,13
 122 1110 122 1110 323 1317 c 0,14,15
 497 1497 497 1497 775 1525 c 0,16,17
 822 1530 822 1530 870 1530 c 0,18,19
 1039 1530 1039 1530 1182 1472 c 0,20,21
 1202 1464 1202 1464 1363 1389 c 1,22,-1
 1367 1387 l 1,23,-1
 1367 1167 l 1,24,-1
 1350 1167 l 1,25,26
 1185 1276 1185 1276 1093 1314 c 0,27,28
 981 1360 981 1360 870 1360 c 0,29,30
 611 1360 611 1360 467 1197 c 0,31,32
 330 1042 330 1042 330 763 c 0,33,34
 330 373 330 373 569 226 c 0,35,36
 693 150 693 150 867 150 c 0,37,38
 1010 150 1010 150 1163 228 c 1,39,-1
 1163 665 l 1,0,-1
EndSplineSet
EndChar

StartChar: a
Encoding: 97 97 68
Width: 1458
Flags: W
LayerCount: 2
Fore
SplineSet
204 0 m 1,0,-1
 204 1489 l 1,1,-1
 590 1489 l 2,2,3
 928 1489 928 1489 1120 1305 c 0,4,5
 1321 1113 1321 1113 1321 752 c 0,6,7
 1321 364 1321 364 1085 164 c 0,8,9
 898 5 898 5 607 0 c 1,10,-1
 590 0 l 1,11,-1
 204 0 l 1,0,-1
402 173 m 1,12,-1
 506 173 l 2,13,14
 852 173 852 173 997 340 c 1,15,16
 1118 481 1118 481 1118 752 c 0,17,18
 1118 1118 1118 1118 885 1242 c 0,19,20
 747 1315 747 1315 506 1315 c 2,21,-1
 402 1315 l 1,22,-1
 402 173 l 1,12,-1
EndSplineSet
EndChar

StartChar: b
Encoding: 98 98 69
Width: 1318
Flags: W
LayerCount: 2
Fore
SplineSet
398 572 m 1,0,-1
 398 0 l 1,1,-1
 200 0 l 1,2,-1
 200 1489 l 1,3,-1
 398 1489 l 1,4,-1
 398 846 l 1,5,-1
 613 1065 l 1,6,-1
 643 1065 l 1,7,8
 643 868 643 868 755 809 c 0,9,10
 794 789 794 789 844 789 c 0,11,12
 908 789 908 789 959 863 c 0,13,14
 1009 936 1009 936 1009 1033 c 1,15,-1
 1197 1033 l 1,16,17
 1197 850 1197 850 1093 728 c 1,18,19
 995 615 995 615 853 609 c 1,20,-1
 840 609 l 2,21,22
 734 609 734 609 651 668 c 0,23,24
 579 720 579 720 578 785 c 1,25,-1
 398 572 l 1,0,-1
EndSplineSet
EndChar

StartChar: c
Encoding: 99 99 70
Width: 1304
Flags: W
LayerCount: 2
Fore
SplineSet
941 375 m 1,0,-1
 941 630 l 1,1,-1
 1141 630 l 1,2,-1
 1141 375 l 2,3,4
 1141 191 1141 191 996 78 c 0,5,6
 863 -26 863 -26 666 -31 c 1,7,-1
 650 -31 l 2,8,9
 476 -31 476 -31 348 77 c 0,10,11
 230 177 230 177 209 320 c 0,12,13
 205 347 205 347 205 375 c 2,14,-1
 205 1489 l 1,15,-1
 400 1489 l 1,16,-1
 400 376 l 1,17,18
 402 244 402 244 493 181 c 0,19,20
 554 139 554 139 650 139 c 0,21,22
 939 139 939 139 941 375 c 1,0,-1
EndSplineSet
EndChar

StartChar: d
Encoding: 100 100 71
Width: 1173
Flags: W
LayerCount: 2
Fore
SplineSet
786 573 m 1,0,-1
 304 0 l 1,1,-1
 76 0 l 1,2,-1
 786 838 l 1,3,-1
 786 1489 l 1,4,-1
 984 1489 l 1,5,-1
 984 0 l 1,6,-1
 786 0 l 1,7,-1
 786 573 l 1,0,-1
EndSplineSet
EndChar

StartChar: e
Encoding: 101 101 72
Width: 1433
Flags: W
LayerCount: 2
Fore
SplineSet
879 681 m 1,0,-1
 879 632 l 2,1,2
 879 493 879 493 977 435 c 0,3,4
 1021 409 1021 409 1072 409 c 0,5,6
 1156 409 1156 409 1247 463 c 1,7,-1
 1250 465 l 1,8,-1
 1276 465 l 1,9,-1
 1276 292 l 1,10,11
 1236 256 1236 256 1145 235 c 0,12,13
 1104 225 1104 225 1072 225 c 0,14,15
 869 225 869 225 763 355 c 0,16,17
 677 459 677 459 677 627 c 2,18,-1
 677 663 l 1,19,-1
 394 663 l 1,20,-1
 394 0 l 1,21,-1
 200 0 l 1,22,-1
 200 1489 l 1,23,-1
 726 1489 l 2,24,25
 996 1489 996 1489 1136 1355 c 0,26,27
 1246 1249 1246 1249 1246 1082 c 0,28,29
 1246 911 1246 911 1110 794 c 0,30,31
 1109 793 1109 793 1108 792 c 1,32,-1
 1108 792 l 1,33,34
 1107 791 1107 791 1106 790 c 0,35,36
 1012 712 1012 712 879 681 c 1,0,-1
394 833 m 1,37,-1
 725 833 l 2,38,39
 1001 833 1001 833 1036 1020 c 0,40,41
 1041 1048 1041 1048 1041 1082 c 0,42,43
 1041 1257 1041 1257 874 1301 c 0,44,45
 872 1301 872 1301 870 1302 c 0,46,47
 868 1302 868 1302 866 1303 c 0,48,49
 833 1311 833 1311 794 1314 c 1,50,-1
 724 1317 l 1,51,-1
 394 1317 l 1,52,-1
 394 833 l 1,37,-1
EndSplineSet
EndChar

StartChar: f
Encoding: 102 102 73
Width: 1411
Flags: W
LayerCount: 2
Fore
SplineSet
739 595 m 1,0,-1
 1091 1489 l 1,1,-1
 1299 1489 l 1,2,-1
 839 345 l 2,3,4
 772 177 772 177 656 74 c 0,5,6
 538 -32 538 -32 398 -32 c 0,7,8
 249 -32 249 -32 162 21 c 1,9,-1
 155 25 l 1,10,-1
 155 200 l 1,11,-1
 181 200 l 1,12,13
 248 161 248 161 294 151 c 0,14,15
 336 142 336 142 398 142 c 0,16,17
 474 142 474 142 557 227 c 0,18,19
 607 278 607 278 638 342 c 1,20,-1
 162 1489 l 1,21,-1
 390 1489 l 1,22,-1
 739 595 l 1,0,-1
EndSplineSet
EndChar

StartChar: g
Encoding: 103 103 74
Width: 1306
Flags: W
LayerCount: 2
Fore
SplineSet
883 685 m 1,0,1
 980 577 980 577 1011 509 c 0,2,3
 1034 458 1034 458 1034 408 c 0,4,5
 1034 255 1034 255 936 132 c 1,6,7
 830 1 830 1 667 -25 c 0,8,9
 634 -30 634 -30 598 -30 c 0,10,11
 412 -30 412 -30 280 50 c 1,12,13
 294 41 294 41 204 99 c 0,14,15
 192 107 192 107 182 113 c 1,16,-1
 182 329 l 1,17,-1
 203 329 l 1,18,19
 397 140 397 140 601 140 c 0,20,21
 754 140 754 140 808 268 c 0,22,23
 832 326 832 326 832 408 c 256,24,25
 832 490 832 490 698 618 c 1,26,-1
 623 685 l 1,27,-1
 182 685 l 1,28,-1
 182 828 l 1,29,-1
 456 828 l 1,30,31
 280 984 280 984 227 1095 c 0,32,33
 198 1155 198 1155 198 1212 c 0,34,35
 198 1347 198 1347 320 1436 c 0,36,37
 433 1519 433 1519 594 1520 c 1,38,39
 793 1520 793 1520 924 1428 c 0,40,41
 943 1414 943 1414 963 1398 c 1,42,-1
 963 1398 l 1,43,44
 974 1388 974 1388 987 1377 c 1,45,-1
 987 1157 l 1,46,-1
 970 1157 l 1,47,48
 869 1265 869 1265 797 1304 c 0,49,50
 712 1351 712 1351 603 1351 c 0,51,52
 502 1351 502 1351 457 1286 c 0,53,54
 434 1254 434 1254 434 1212 c 0,55,56
 434 1152 434 1152 554 1034 c 0,57,58
 587 1002 587 1002 662 934 c 1,59,-1
 677 920 l 1,60,-1
 776 828 l 1,61,-1
 1142 828 l 1,62,-1
 1142 685 l 1,63,-1
 883 685 l 1,0,1
EndSplineSet
EndChar

StartChar: h
Encoding: 104 104 75
Width: 1773
Flags: W
LayerCount: 2
Fore
SplineSet
832 305 m 2,0,1
 832 127 832 127 708 35 c 0,2,3
 619 -31 619 -31 490 -31 c 0,4,5
 316 -31 316 -31 224 78 c 1,6,7
 150 163 150 163 150 299 c 2,8,-1
 150 510 l 1,9,-1
 340 510 l 1,10,-1
 340 299 l 2,11,12
 340 187 340 187 422 152 c 0,13,14
 452 139 452 139 490 139 c 0,15,16
 572 139 572 139 613 209 c 0,17,18
 637 251 637 251 637 306 c 2,19,-1
 637 1120 l 2,20,21
 637 1420 637 1420 824 1496 c 0,22,23
 883 1520 883 1520 957 1520 c 0,24,25
 1205 1520 1205 1520 1372 1345 c 0,26,27
 1541 1168 1541 1168 1575 871 c 0,28,29
 1582 806 1582 806 1582 737 c 0,30,31
 1582 356 1582 356 1405 82 c 1,32,-1
 1350 0 l 1,33,-1
 1107 0 l 1,34,-1
 1210 172 l 1,35,36
 1364 447 1364 447 1373 736 c 1,37,-1
 832 736 l 1,38,-1
 832 305 l 2,0,1
1359 905 m 1,39,40
 1318 1124 1318 1124 1183 1250 c 0,41,42
 1077 1349 1077 1349 957 1349 c 0,43,44
 866 1349 866 1349 841 1215 c 1,45,46
 832 1173 832 1173 832 1119 c 2,47,-1
 832 905 l 1,48,-1
 1359 905 l 1,39,40
EndSplineSet
EndChar

StartChar: i
Encoding: 105 105 76
Width: 1618
Flags: W
LayerCount: 2
Fore
SplineSet
883 1313 m 1,0,-1
 883 0 l 1,1,-1
 685 0 l 1,2,-1
 685 1313 l 1,3,-1
 155 1313 l 1,4,-1
 155 1489 l 1,5,-1
 1415 1489 l 1,6,-1
 1415 1313 l 1,7,-1
 883 1313 l 1,0,-1
EndSplineSet
EndChar

StartChar: j
Encoding: 106 106 77
Width: 1430
Flags: W
LayerCount: 2
Fore
SplineSet
541 920 m 1,0,1
 595 890 595 890 747 856 c 0,2,3
 921 817 921 817 999 783 c 1,4,5
 1065 753 1065 753 1112 712 c 0,6,7
 1200 635 1200 635 1226 568 c 0,8,9
 1244 523 1244 523 1244 464 c 0,10,11
 1244 66 1244 66 882 -12 c 0,12,13
 797 -30 797 -30 693 -30 c 0,14,15
 551 -30 551 -30 359 47 c 0,16,17
 277 80 277 80 227 113 c 1,18,-1
 227 329 l 1,19,-1
 248 329 l 1,20,21
 410 186 410 186 596 150 c 0,22,23
 647 140 647 140 696 140 c 0,24,25
 979 140 979 140 1028 326 c 0,26,27
 1038 362 1038 362 1038 405 c 0,28,29
 1038 496 1038 496 998 540 c 1,30,-1
 984 552 l 1,31,32
 903 609 903 609 748 643 c 0,33,34
 590 678 590 678 568 684 c 0,35,36
 468 712 468 712 398 759 c 1,37,-1
 380 772 l 1,38,39
 262 860 262 860 230 1007 c 0,40,41
 221 1048 221 1048 221 1088 c 0,42,43
 221 1252 221 1252 322 1367 c 0,44,45
 457 1520 457 1520 728 1520 c 0,46,47
 929 1520 929 1520 1060 1457 c 0,48,49
 1122 1427 1122 1427 1183 1379 c 1,50,-1
 1185 1377 l 1,51,-1
 1185 1157 l 1,52,-1
 1168 1157 l 1,53,54
 1030 1267 1030 1267 942 1305 c 1,55,56
 842 1350 842 1350 728 1350 c 0,57,58
 455 1350 455 1350 431 1130 c 0,59,60
 431 1129 431 1129 431 1128 c 2,61,-1
 429 1088 l 1,62,63
 429 994 429 994 521 933 c 1,64,-1
 541 920 l 1,0,1
EndSplineSet
EndChar

StartChar: k
Encoding: 107 107 78
Width: 1300
Flags: W
LayerCount: 2
Fore
SplineSet
939 425 m 1,0,-1
 823 425 l 2,1,2
 733 425 733 425 637 535 c 1,3,-1
 523 676 l 1,4,5
 468 738 468 738 425 738 c 2,6,-1
 142 738 l 1,7,-1
 142 905 l 1,8,-1
 468 905 l 2,9,10
 569 905 569 905 663 796 c 1,11,-1
 769 664 l 1,12,13
 817 609 817 609 858 609 c 2,14,-1
 939 609 l 1,15,-1
 939 1100 l 2,16,17
 939 1227 939 1227 840 1300 c 0,18,19
 772 1350 772 1350 694 1350 c 0,20,21
 612 1350 612 1350 544 1289 c 1,22,-1
 543 1288 l 2,23,24
 535 1281 535 1281 528 1273 c 2,25,-1
 527 1272 l 1,26,27
 476 1216 476 1216 476 1147 c 2,28,-1
 476 1111 l 1,29,-1
 274 1111 l 1,30,-1
 274 1147 l 2,31,32
 274 1304 274 1304 394 1411 c 0,33,34
 508 1512 508 1512 671 1519 c 2,35,-1
 693 1520 l 1,36,37
 876 1520 876 1520 1000 1416 c 0,38,39
 1140 1300 1140 1300 1140 1100 c 2,40,-1
 1140 0 l 1,41,-1
 939 0 l 1,42,-1
 939 425 l 1,0,-1
EndSplineSet
EndChar

StartChar: l
Encoding: 108 108 79
Width: 1321
Flags: W
LayerCount: 2
Fore
SplineSet
936 1114 m 0,0,1
 936 1297 936 1297 766 1338 c 0,2,3
 715 1350 715 1350 646 1350 c 0,4,5
 478 1350 478 1350 420 1225 c 1,6,7
 420 1225 420 1225 419 1224 c 0,8,9
 419 1223 419 1223 419 1222 c 0,10,11
 397 1174 397 1174 396 1113 c 1,12,-1
 396 0 l 1,13,-1
 201 0 l 1,14,-1
 201 1114 l 1,15,16
 200 1263 200 1263 308 1378 c 0,17,18
 417 1494 417 1494 582 1516 c 0,19,20
 613 1520 613 1520 646 1520 c 0,21,22
 905 1520 905 1520 1035 1389 c 0,23,24
 1136 1287 1136 1287 1136 1114 c 0,25,26
 1136 921 1136 921 998 825 c 0,27,28
 905 760 905 760 781 760 c 2,29,-1
 649 760 l 1,30,-1
 649 936 l 1,31,-1
 752 936 l 2,32,33
 902 936 902 936 931 1059 c 0,34,35
 936 1084 936 1084 936 1114 c 0,0,1
EndSplineSet
EndChar

StartChar: m
Encoding: 109 109 80
Width: 2166
Flags: W
LayerCount: 2
Fore
SplineSet
1053 752 m 0,0,1
 1053 1224 1053 1224 841 1321 c 0,2,3
 840 1321 840 1321 838 1322 c 0,4,5
 782 1347 782 1347 710 1347 c 0,6,7
 444 1347 444 1347 385 998 c 0,8,9
 367 893 367 893 367 752 c 0,10,11
 367 138 367 138 710 138 c 0,12,13
 1052 138 1052 138 1053 752 c 0,0,1
1254 571 m 1,14,15
 1213 222 1213 222 1012 67 c 0,16,17
 882 -32 882 -32 710 -32 c 0,18,19
 440 -32 440 -32 295 179 c 0,20,21
 155 382 155 382 155 752 c 0,22,23
 155 1255 155 1255 410 1432 c 0,24,25
 534 1517 534 1517 710 1517 c 0,26,27
 963 1517 963 1517 1109 1330 c 0,28,29
 1109 1329 1109 1329 1110 1328 c 0,30,31
 1243 1157 1243 1157 1262 852 c 1,32,-1
 1470 1065 l 1,33,-1
 1500 1065 l 1,34,35
 1500 868 1500 868 1612 809 c 0,36,37
 1651 789 1651 789 1701 789 c 0,38,39
 1765 789 1765 789 1816 863 c 0,40,41
 1866 936 1866 936 1866 1033 c 1,42,-1
 2054 1033 l 1,43,44
 2054 850 2054 850 1950 728 c 1,45,46
 1852 615 1852 615 1710 609 c 1,47,-1
 1697 609 l 2,48,49
 1591 609 1591 609 1508 668 c 0,50,51
 1436 720 1436 720 1435 785 c 1,52,-1
 1254 571 l 1,14,15
EndSplineSet
EndChar

StartChar: n
Encoding: 110 110 81
Width: 1687
Flags: W
LayerCount: 2
Fore
SplineSet
1535 752 m 0,0,1
 1535 325 1535 325 1286 119 c 1,2,3
 1119 -21 1119 -21 882 -31 c 0,4,5
 864 -32 864 -32 847 -32 c 0,6,7
 591 -32 591 -32 415 108 c 0,8,9
 160 311 160 311 159 752 c 1,10,11
 159 1214 159 1214 441 1405 c 1,12,13
 609 1517 609 1517 847 1517 c 0,14,15
 1098 1517 1098 1517 1273 1385 c 0,16,17
 1339 1336 1339 1336 1388 1271 c 0,18,19
 1535 1077 1535 1077 1535 752 c 0,0,1
1329 680 m 1,20,-1
 366 680 l 1,21,22
 385 373 385 373 565 232 c 0,23,24
 633 178 633 178 718 155 c 0,25,26
 780 138 780 138 848 138 c 0,27,28
 1052 138 1052 138 1181 279 c 0,29,30
 1312 423 1312 423 1329 680 c 1,20,-1
366 832 m 1,31,-1
 1328 832 l 1,32,33
 1305 1147 1305 1147 1108 1275 c 0,34,35
 1005 1342 1005 1342 869 1347 c 1,36,-1
 847 1347 l 2,37,38
 626 1347 626 1347 497 1197 c 1,39,-1
 497 1196 l 1,40,41
 496 1195 496 1195 495 1194 c 0,42,43
 384 1062 384 1062 367 836 c 1,44,-1
 366 832 l 1,31,-1
EndSplineSet
EndChar

StartChar: o
Encoding: 111 111 82
Width: 1608
Flags: W
LayerCount: 2
Fore
SplineSet
767 454 m 1,0,1
 767 652 767 652 643 719 c 0,2,3
 593 745 593 745 530 745 c 0,4,5
 397 745 397 745 335 640 c 0,6,7
 293 568 293 568 292 454 c 1,8,9
 292 263 292 263 406 188 c 0,10,11
 460 153 460 153 530 153 c 0,12,13
 651 153 651 153 716 251 c 0,14,15
 766 328 766 328 767 454 c 1,0,1
440 922 m 1,16,17
 493 1047 493 1047 628 1126 c 0,18,19
 717 1179 717 1179 819 1196 c 1,20,-1
 819 1313 l 1,21,-1
 360 1313 l 1,22,-1
 360 1489 l 1,23,-1
 819 1489 l 1,24,-1
 979 1489 l 1,25,-1
 1436 1489 l 1,26,-1
 1436 1313 l 1,27,-1
 979 1313 l 1,28,-1
 979 1197 l 1,29,30
 1180 1174 1180 1174 1305 1065 c 0,31,32
 1429 957 1429 957 1430 796 c 1,33,-1
 1430 0 l 1,34,-1
 1230 0 l 1,35,-1
 1230 796 l 2,36,37
 1230 928 1230 928 1106 991 c 1,38,-1
 1106 991 l 1,39,40
 1024 1032 1024 1032 899 1032 c 0,41,42
 703 1032 703 1032 638 918 c 1,43,44
 827 876 827 876 906 708 c 0,45,46
 956 604 956 604 956 455 c 0,47,48
 956 166 956 166 774 41 c 0,49,50
 668 -31 668 -31 530 -31 c 0,51,52
 346 -31 346 -31 232 82 c 0,53,54
 103 210 103 210 103 455 c 0,55,56
 103 768 103 768 310 879 c 0,57,58
 368 910 368 910 440 922 c 1,16,17
EndSplineSet
EndChar

StartChar: p
Encoding: 112 112 83
Width: 1483
Flags: W
LayerCount: 2
Fore
SplineSet
715 1120 m 2,0,1
 668 1244 668 1244 598 1310 c 0,2,3
 557 1349 557 1349 522 1349 c 0,4,5
 435 1349 435 1349 407 1234 c 0,6,7
 398 1199 398 1199 396 1154 c 2,8,-1
 395 1119 l 1,9,-1
 395 0 l 1,10,-1
 200 0 l 1,11,-1
 200 1120 l 2,12,13
 200 1389 200 1389 358 1480 c 0,14,15
 427 1520 427 1520 522 1520 c 0,16,17
 742 1520 742 1520 875 1236 c 0,18,19
 876 1234 876 1234 877 1232 c 0,20,21
 895 1193 895 1193 924 1120 c 2,22,-1
 1364 0 l 1,23,-1
 1142 0 l 1,24,-1
 715 1120 l 2,0,1
EndSplineSet
EndChar

StartChar: q
Encoding: 113 113 84
Width: 1400
Flags: W
LayerCount: 2
Fore
SplineSet
1354 0 m 1,0,-1
 1143 0 l 1,1,-1
 997 415 l 1,2,-1
 393 415 l 1,3,-1
 247 0 l 1,4,-1
 46 0 l 1,5,-1
 568 1489 l 1,6,-1
 832 1489 l 1,7,-1
 1354 0 l 1,0,-1
936 585 m 1,8,-1
 695 1316 l 1,9,-1
 453 585 l 1,10,-1
 936 585 l 1,8,-1
EndSplineSet
EndChar

StartChar: r
Encoding: 114 114 85
Width: 2072
Flags: W
LayerCount: 2
Fore
SplineSet
1249 1058 m 2,0,-1
 1249 905 l 1,1,-1
 1050 905 l 1,2,-1
 1050 1058 l 2,3,4
 1050 1333 1050 1333 858 1357 c 1,5,-1
 823 1359 l 1,6,7
 723 1359 723 1359 660 1299 c 1,8,-1
 648 1287 l 1,9,10
 620 1257 620 1257 576 1193 c 1,11,12
 720 1041 720 1041 804 826 c 1,13,14
 870 660 870 660 870 519 c 0,15,16
 870 250 870 250 802 123 c 0,17,18
 718 -35 718 -35 520 -35 c 0,19,20
 301 -35 301 -35 216 213 c 1,21,22
 170 344 170 344 170 519 c 0,23,24
 170 777 170 777 313 1083 c 0,25,26
 338 1136 338 1136 366 1188 c 0,27,28
 490 1415 490 1415 622 1492 c 0,29,30
 711 1543 711 1543 823 1543 c 0,31,32
 958 1543 958 1543 1062 1460 c 1,33,34
 1095 1435 1095 1435 1120 1403 c 1,35,-1
 1120 1403 l 1,36,37
 1136 1383 1136 1383 1149 1360 c 1,38,39
 1224 1488 1224 1488 1372 1529 c 0,40,41
 1424 1543 1424 1543 1477 1543 c 0,42,43
 1643 1543 1643 1543 1757 1443 c 0,44,45
 1903 1315 1903 1315 1903 1057 c 2,46,-1
 1903 905 l 1,47,-1
 1704 905 l 1,48,-1
 1704 1058 l 2,49,50
 1704 1249 1704 1249 1596 1324 c 0,51,52
 1544 1359 1544 1359 1477 1359 c 0,53,54
 1361 1359 1361 1359 1299 1262 c 0,55,56
 1249 1185 1249 1185 1249 1058 c 2,0,-1
476 1027 m 1,57,58
 371 847 371 847 352 593 c 1,59,60
 349 519 349 519 349 519 c 1,61,62
 349 336 349 336 411 218 c 0,63,64
 458 130 458 130 520 130 c 0,65,66
 593 130 593 130 642 243 c 256,67,68
 691 356 691 356 691 519 c 0,69,70
 691 776 691 776 476 1027 c 1,57,58
EndSplineSet
EndChar

StartChar: s
Encoding: 115 115 86
Width: 2275
Flags: W
LayerCount: 2
Fore
SplineSet
809 454 m 0,0,1
 809 652 809 652 685 719 c 0,2,3
 636 745 636 745 572 745 c 0,4,5
 440 745 440 745 378 640 c 0,6,7
 335 568 335 568 335 454 c 0,8,9
 335 263 335 263 448 188 c 0,10,11
 502 153 502 153 572 153 c 0,12,13
 694 153 694 153 758 251 c 0,14,15
 809 328 809 328 809 454 c 0,0,1
1156 438 m 1,16,-1
 998 438 l 1,17,18
 993 157 993 157 811 37 c 0,19,20
 707 -31 707 -31 572 -31 c 0,21,22
 389 -31 389 -31 275 81 c 0,23,24
 146 209 146 209 146 455 c 0,25,26
 146 768 146 768 352 878 c 1,27,28
 447 930 447 930 572 930 c 0,29,30
 753 930 753 930 867 822 c 0,31,32
 958 736 958 736 987 590 c 1,33,-1
 1156 590 l 1,34,-1
 1156 905 l 1,35,-1
 1354 905 l 1,36,-1
 1354 454 l 2,37,38
 1354 270 1354 270 1463 193 c 0,39,40
 1519 153 1519 153 1591 153 c 0,41,42
 1727 153 1727 153 1812 299 c 0,43,44
 1905 458 1905 458 1906 745 c 1,45,46
 1906 1134 1906 1134 1736 1271 c 0,47,48
 1659 1333 1659 1333 1554 1333 c 0,49,50
 1361 1333 1361 1333 1232 1255 c 0,51,52
 1201 1236 1201 1236 1170 1212 c 1,53,-1
 1153 1212 l 1,54,-1
 1153 1410 l 1,55,56
 1348 1518 1348 1518 1554 1519 c 1,57,58
 2114 1519 2114 1519 2114 746 c 0,59,60
 2114 272 2114 272 1906 82 c 0,61,62
 1781 -31 1781 -31 1591 -31 c 0,63,64
 1412 -31 1412 -31 1295 76 c 0,65,66
 1161 199 1161 199 1156 438 c 1,16,-1
EndSplineSet
EndChar

StartChar: t
Encoding: 116 116 87
Width: 1968
Flags: W
LayerCount: 2
Fore
SplineSet
977 988 m 1,0,-1
 1112 1489 l 1,1,-1
 1314 1489 l 1,2,-1
 1073 745 l 1,3,-1
 1249 179 l 1,4,-1
 1656 1489 l 1,5,-1
 1858 1489 l 1,6,-1
 1376 0 l 1,7,-1
 1134 0 l 1,8,-1
 980 523 l 1,9,-1
 832 0 l 1,10,-1
 568 0 l 1,11,-1
 86 1489 l 1,12,-1
 298 1489 l 1,13,-1
 705 179 l 1,14,-1
 881 747 l 1,15,-1
 630 1489 l 1,16,-1
 842 1489 l 1,17,-1
 977 988 l 1,0,-1
EndSplineSet
EndChar

StartChar: u
Encoding: 117 117 88
Width: 1844
Flags: W
LayerCount: 2
Fore
SplineSet
1043 752 m 0,0,1
 1043 1224 1043 1224 831 1321 c 0,2,3
 830 1321 830 1321 828 1322 c 0,4,5
 772 1347 772 1347 700 1347 c 0,6,7
 434 1347 434 1347 375 998 c 0,8,9
 357 893 357 893 357 752 c 0,10,11
 357 138 357 138 700 138 c 0,12,13
 1042 138 1042 138 1043 752 c 0,0,1
1254 776 m 1,14,-1
 1255 756 l 1,15,16
 1293 725 1293 725 1349 725 c 0,17,18
 1509 725 1509 725 1543 858 c 0,19,20
 1553 897 1553 897 1553 949 c 0,21,22
 1553 1191 1553 1191 1426 1193 c 1,23,-1
 1366 1193 l 1,24,-1
 1366 1363 l 1,25,-1
 1426 1363 l 2,26,27
 1594 1363 1594 1363 1672 1205 c 0,28,29
 1723 1100 1723 1100 1723 949 c 0,30,31
 1723 760 1723 760 1598 649 c 0,32,33
 1493 557 1493 557 1349 557 c 0,34,35
 1296 557 1296 557 1245 580 c 1,36,37
 1205 223 1205 223 1001 66 c 0,38,39
 873 -32 873 -32 700 -32 c 0,40,41
 430 -32 430 -32 285 179 c 0,42,43
 145 382 145 382 145 752 c 0,44,45
 145 1255 145 1255 400 1432 c 0,46,47
 524 1517 524 1517 700 1517 c 0,48,49
 933 1517 933 1517 1079 1344 c 0,50,51
 1244 1148 1244 1148 1254 776 c 1,14,-1
EndSplineSet
EndChar

StartChar: v
Encoding: 118 118 89
Width: 1033
Flags: W
LayerCount: 2
Fore
SplineSet
614 1304 m 1,0,-1
 402 1304 l 1,1,-1
 402 1499 l 1,2,-1
 614 1499 l 1,3,-1
 614 1304 l 1,0,-1
602 153 m 1,4,-1
 859 153 l 1,5,-1
 859 0 l 1,6,-1
 602 0 l 1,7,-1
 414 0 l 1,8,-1
 155 0 l 1,9,-1
 155 153 l 1,10,-1
 414 153 l 1,11,-1
 414 1117 l 1,12,-1
 602 1117 l 1,13,-1
 602 153 l 1,4,-1
EndSplineSet
EndChar

StartChar: w
Encoding: 119 119 90
Width: 1726
Flags: W
LayerCount: 2
Fore
SplineSet
494 214 m 1,0,-1
 783 905 l 1,1,-1
 916 905 l 1,2,-1
 1195 254 l 1,3,-1
 1361 1489 l 1,4,-1
 1561 1489 l 1,5,-1
 1355 0 l 1,6,-1
 1120 0 l 1,7,-1
 840 635 l 1,8,-1
 591 0 l 1,9,-1
 334 0 l 1,10,-1
 134 1489 l 1,11,-1
 334 1489 l 1,12,-1
 494 214 l 1,0,-1
EndSplineSet
EndChar

StartChar: x
Encoding: 120 120 91
Width: 1328
Flags: W
LayerCount: 2
Fore
SplineSet
400 732 m 1,0,-1
 400 174 l 1,1,-1
 600 174 l 2,2,3
 870 174 870 174 970 308 c 0,4,5
 1020 374 1020 374 1020 470 c 0,6,7
 1020 581 1020 581 895 657 c 0,8,9
 773 731 773 731 596 734 c 1,10,-1
 400 732 l 1,0,-1
850 852 m 1,11,12
 1006 820 1006 820 1110 722 c 0,13,14
 1219 620 1219 620 1220 478 c 1,15,16
 1220 128 1220 128 878 33 c 0,17,18
 758 0 758 0 600 0 c 2,19,-1
 200 0 l 1,20,-1
 200 1489 l 1,21,-1
 560 1489 l 2,22,23
 851 1489 851 1489 964 1376 c 2,24,-1
 965 1375 l 1,25,-1
 965 1374 l 1,26,27
 1039 1300 1039 1300 1047 1174 c 1,28,-1
 1048 1142 l 1,29,30
 1048 1040 1048 1040 979 948 c 1,31,-1
 978 946 l 1,32,33
 950 910 950 910 917 885 c 0,34,35
 884 861 884 861 850 852 c 1,11,12
400 901 m 1,36,-1
 587 901 l 2,37,38
 696 901 696 901 768 954 c 0,39,40
 826 997 826 997 836 1066 c 1,41,-1
 836 1067 l 1,42,43
 840 1092 840 1092 840 1142 c 0,44,45
 840 1269 840 1269 716 1305 c 0,46,47
 674 1317 674 1317 620 1317 c 2,48,-1
 400 1317 l 1,49,-1
 400 901 l 1,36,-1
EndSplineSet
EndChar

StartChar: y
Encoding: 121 121 92
Width: 2004
Flags: W
LayerCount: 2
Fore
SplineSet
1055 729 m 1,0,-1
 1055 454 l 2,1,2
 1055 272 1055 272 1161 193 c 0,3,4
 1218 150 1218 150 1291 150 c 0,5,6
 1425 150 1425 150 1510 294 c 0,7,8
 1606 455 1606 455 1606 745 c 0,9,10
 1606 1134 1606 1134 1437 1271 c 0,11,12
 1359 1333 1359 1333 1254 1333 c 0,13,14
 1062 1333 1062 1333 932 1255 c 0,15,16
 901 1236 901 1236 870 1212 c 1,17,-1
 853 1212 l 1,18,-1
 853 1410 l 1,19,20
 1049 1518 1049 1518 1254 1519 c 1,21,22
 1814 1519 1814 1519 1815 746 c 0,23,24
 1815 272 1815 272 1606 82 c 0,25,26
 1482 -31 1482 -31 1291 -31 c 0,27,28
 1177 -31 1177 -31 1054 58 c 0,29,30
 995 101 995 101 954 153 c 1,31,32
 876 48 876 48 755 -3 c 0,33,34
 689 -31 689 -31 629 -31 c 0,35,36
 446 -31 446 -31 332 81 c 0,37,38
 203 209 203 209 202 455 c 1,39,-1
 202 905 l 1,40,-1
 399 905 l 1,41,-1
 399 454 l 2,42,43
 399 265 399 265 506 188 c 0,44,45
 560 150 560 150 629 150 c 0,46,47
 742 150 742 150 804 246 c 0,48,49
 856 325 856 325 856 454 c 2,50,-1
 856 729 l 1,51,-1
 656 729 l 1,52,-1
 656 905 l 1,53,-1
 1251 905 l 1,54,-1
 1251 729 l 1,55,-1
 1055 729 l 1,0,-1
EndSplineSet
EndChar

StartChar: z
Encoding: 122 122 93
Width: 1295
Flags: W
LayerCount: 2
Fore
SplineSet
1181 0 m 1,0,-1
 200 0 l 1,1,-1
 200 1489 l 1,2,-1
 1181 1489 l 1,3,-1
 1181 1313 l 1,4,-1
 398 1313 l 1,5,-1
 398 905 l 1,6,-1
 992 905 l 1,7,-1
 992 729 l 1,8,-1
 398 729 l 1,9,-1
 398 176 l 1,10,-1
 1181 176 l 1,11,-1
 1181 0 l 1,0,-1
EndSplineSet
EndChar

StartChar: braceleft
Encoding: 123 123 94
Width: 1536
Flags: W
LayerCount: 2
Fore
SplineSet
844 1281 m 0,0,1
 844 1355 844 1355 790 1367 c 1,2,-1
 773 1369 l 1,3,4
 719 1369 719 1369 705 1314 c 1,5,-1
 705 1313 l 1,6,-1
 705 1312 l 1,7,-1
 702 1281 l 1,8,9
 702 1209 702 1209 752 1194 c 1,10,-1
 773 1191 l 1,11,12
 823 1191 823 1191 839 1242 c 0,13,14
 844 1259 844 1259 844 1281 c 0,0,1
819 454 m 0,15,16
 819 645 819 645 706 719 c 0,17,18
 652 754 652 754 582 754 c 0,19,20
 461 754 461 754 396 657 c 0,21,22
 396 656 396 656 395 655 c 0,23,24
 345 578 345 578 345 454 c 0,25,26
 345 263 345 263 458 188 c 0,27,28
 512 153 512 153 582 153 c 0,29,30
 704 153 704 153 768 251 c 0,31,32
 819 328 819 328 819 454 c 0,15,16
404 920 m 2,33,-1
 625 1095 l 1,34,35
 560 1159 560 1159 560 1283 c 0,36,37
 560 1460 560 1460 689 1506 c 0,38,39
 728 1520 728 1520 773 1520 c 0,40,41
 885 1520 885 1520 943 1441 c 0,42,43
 986 1381 986 1381 986 1283 c 0,44,45
 986 1246 986 1246 980 1214 c 1,46,-1
 1183 1214 l 2,47,48
 1294 1214 1294 1214 1354 1138 c 1,49,-1
 1355 1137 l 1,50,-1
 1355 1136 l 1,51,52
 1397 1083 1397 1083 1397 1004 c 2,53,-1
 1397 752 l 1,54,-1
 1202 752 l 1,55,-1
 1202 956 l 2,56,57
 1202 1020 1202 1020 1151 1038 c 0,58,59
 1135 1044 1135 1044 1115 1044 c 2,60,-1
 830 1044 l 1,61,-1
 641 910 l 1,62,63
 851 905 851 905 945 741 c 1,64,-1
 945 741 l 1,65,66
 1008 630 1008 630 1009 455 c 1,67,68
 1009 166 1009 166 826 41 c 0,69,70
 825 40 825 40 823 39 c 0,71,72
 733 -22 733 -22 615 -30 c 0,73,74
 599 -31 599 -31 582 -31 c 0,75,76
 399 -31 399 -31 285 81 c 0,77,78
 156 209 156 209 156 455 c 0,79,80
 156 723 156 723 404 920 c 2,33,-1
EndSplineSet
EndChar

StartChar: bar
Encoding: 124 124 95
Width: 1554
Flags: W
LayerCount: 2
Fore
SplineSet
1356 1031 m 1,0,-1
 1164 1031 l 1,1,-1
 1164 1265 l 1,2,3
 1005 1350 1005 1350 860 1350 c 0,4,5
 591 1350 591 1350 449 1173 c 0,6,7
 349 1049 349 1049 326 851 c 1,8,-1
 900 851 l 2,9,10
 1177 851 1177 851 1317 727 c 0,11,12
 1430 627 1430 627 1430 458 c 0,13,14
 1430 204 1430 204 1215 72 c 0,15,16
 1051 -28 1051 -28 810 -30 c 1,17,18
 411 -30 411 -30 235 246 c 0,19,20
 112 439 112 439 112 753 c 0,21,22
 112 1100 112 1100 313 1307 c 0,23,24
 487 1487 487 1487 765 1515 c 0,25,26
 812 1520 812 1520 860 1520 c 0,27,28
 1028 1520 1028 1520 1171 1462 c 0,29,30
 1190 1454 1190 1454 1350 1380 c 1,31,-1
 1356 1377 l 1,32,-1
 1356 1031 l 1,0,-1
324 675 m 1,33,34
 358 220 358 220 688 152 c 0,35,36
 743 140 743 140 807 140 c 0,37,38
 942 140 942 140 1061 205 c 0,39,40
 1212 287 1212 287 1228 427 c 0,41,42
 1230 442 1230 442 1230 458 c 0,43,44
 1230 592 1230 592 1066 648 c 0,45,46
 985 675 985 675 900 675 c 2,47,-1
 324 675 l 1,33,34
EndSplineSet
EndChar

StartChar: braceright
Encoding: 125 125 96
Width: 1591
Flags: W
LayerCount: 2
Fore
SplineSet
530 238 m 1,0,-1
 1296 1489 l 1,1,-1
 1504 1489 l 1,2,-1
 585 0 l 1,3,-1
 332 0 l 1,4,-1
 332 1337 l 1,5,-1
 137 1337 l 1,6,-1
 137 1489 l 1,7,-1
 725 1489 l 1,8,-1
 725 1337 l 1,9,-1
 530 1337 l 1,10,-1
 530 238 l 1,0,-1
EndSplineSet
EndChar

StartChar: asciitilde
Encoding: 126 126 97
Width: 2253
Flags: W
LayerCount: 2
Fore
SplineSet
913 130 m 1,0,1
 800 258 800 258 799 432 c 1,2,3
 799 641 799 641 926 778 c 0,4,5
 1027 887 1027 887 1161 903 c 0,6,7
 1181 906 1181 906 1201 906 c 0,8,9
 1352 906 1352 906 1432 860 c 1,10,-1
 1432 688 l 1,11,-1
 1407 689 l 1,12,13
 1311 736 1311 736 1201 736 c 0,14,15
 1099 736 1099 736 1039 627 c 0,16,17
 992 542 992 542 992 432 c 0,18,19
 992 295 992 295 1109 202 c 0,20,21
 1110 201 1110 201 1111 200 c 0,22,23
 1222 112 1222 112 1377 108 c 1,24,-1
 1389 108 l 2,25,26
 1619 108 1619 108 1757 271 c 1,27,28
 1900 438 1900 438 1900 729 c 0,29,30
 1900 1104 1900 1104 1739 1240 c 0,31,32
 1665 1303 1665 1303 1565 1303 c 0,33,34
 1496 1303 1496 1303 1477 1296 c 1,35,-1
 1477 1296 l 1,36,37
 1476 1296 1476 1296 1476 1295 c 1,38,-1
 1475 1295 l 1,39,40
 1471 1293 1471 1293 1406 1256 c 1,41,-1
 1385 1256 l 1,42,-1
 1385 1454 l 1,43,44
 1462 1486 1462 1486 1516 1488 c 2,45,-1
 1565 1489 l 1,46,47
 1771 1489 1771 1489 1914 1338 c 0,48,49
 1916 1337 1916 1337 1917 1336 c 0,50,51
 2095 1146 2095 1146 2108 786 c 1,52,-1
 2109 730 l 1,53,54
 2109 378 2109 378 1931 168 c 0,55,56
 1898 128 1898 128 1858 95 c 0,57,58
 1675 -60 1675 -60 1389 -60 c 0,59,60
 1198 -60 1198 -60 1050 22 c 1,61,62
 935 -53 935 -53 828 -59 c 1,63,-1
 805 -60 l 1,64,65
 536 -60 536 -60 356 118 c 0,66,67
 178 294 178 294 140 587 c 0,68,69
 131 657 131 657 131 730 c 0,70,71
 131 1100 131 1100 306 1308 c 0,72,73
 441 1467 441 1467 639 1487 c 1,74,-1
 689 1489 l 1,75,76
 766 1489 766 1489 805 1478 c 1,77,-1
 869 1454 l 1,78,-1
 869 1256 l 1,79,-1
 848 1256 l 1,80,81
 782 1294 782 1294 775 1297 c 0,82,83
 769 1299 769 1299 763 1300 c 1,84,85
 763 1300 763 1300 762 1300 c 0,86,87
 748 1303 748 1303 689 1303 c 0,88,89
 541 1303 541 1303 448 1172 c 0,90,91
 340 1021 340 1021 340 729 c 0,92,93
 340 454 340 454 476 279 c 0,94,95
 587 136 587 136 750 112 c 0,96,97
 777 108 777 108 805 108 c 0,98,99
 868 108 868 108 913 130 c 1,0,1
EndSplineSet
EndChar

StartChar: exclamdown
Encoding: 161 161 99
Width: 794
Flags: W
LayerCount: 2
Fore
SplineSet
496 1489 m 1,0,-1
 496 1308 l 1,1,-1
 465 410 l 1,2,-1
 303 410 l 1,3,-1
 268 1308 l 1,4,-1
 268 1489 l 1,5,-1
 496 1489 l 1,0,-1
485 0 m 1,6,-1
 281 0 l 1,7,-1
 281 211 l 1,8,-1
 485 211 l 1,9,-1
 485 0 l 1,6,-1
EndSplineSet
EndChar

StartChar: brokenbar
Encoding: 166 166 104
Width: 930
Flags: W
LayerCount: 2
Fore
SplineSet
552 758 m 1,0,-1
 378 758 l 1,1,-1
 378 2059 l 1,2,-1
 552 2059 l 1,3,-1
 552 758 l 1,0,-1
552 -430 m 1,4,-1
 378 -430 l 1,5,-1
 378 406 l 1,6,-1
 552 406 l 1,7,-1
 552 -430 l 1,4,-1
EndSplineSet
EndChar

StartChar: dieresis
Encoding: 168 168 106
Width: 930
Flags: W
LayerCount: 2
Fore
SplineSet
585 832 m 1,0,-1
 346 832 l 1,1,-1
 346 1117 l 1,2,-1
 585 1117 l 1,3,-1
 585 832 l 1,0,-1
585 0 m 1,4,-1
 346 0 l 1,5,-1
 346 285 l 1,6,-1
 585 285 l 1,7,-1
 585 0 l 1,4,-1
EndSplineSet
EndChar

StartChar: copyright
Encoding: 169 169 107
Width: 930
Flags: W
LayerCount: 2
Fore
SplineSet
585 832 m 1,0,-1
 346 832 l 1,1,-1
 346 1117 l 1,2,-1
 585 1117 l 1,3,-1
 585 832 l 1,0,-1
663 286 m 1,4,-1
 404 -243 l 1,5,-1
 258 -243 l 1,6,-1
 409 286 l 1,7,-1
 663 286 l 1,4,-1
EndSplineSet
EndChar

StartChar: softhyphen
Encoding: 173 173 111
Width: 930
Flags: W
LayerCount: 2
Fore
SplineSet
777 561 m 1,0,-1
 153 561 l 1,1,-1
 153 742 l 1,2,-1
 777 742 l 1,3,-1
 777 561 l 1,0,-1
EndSplineSet
EndChar

StartChar: questiondown
Encoding: 191 191 129
Width: 1141
Flags: W
LayerCount: 2
Fore
SplineSet
124 1426 m 1,0,-1
 124 1249 l 1,1,-1
 149 1249 l 1,2,3
 314 1328 314 1328 420 1343 c 0,4,5
 457 1348 457 1348 492 1348 c 0,6,7
 646 1348 646 1348 739 1284 c 0,8,9
 774 1260 774 1260 794 1229 c 0,10,11
 795 1228 795 1228 795 1227 c 1,12,-1
 796 1227 l 1,13,-1
 797 1226 l 1,14,15
 821 1186 821 1186 821 1136 c 0,16,17
 821 969 821 969 605 817 c 0,18,19
 563 787 563 787 419 702 c 1,20,-1
 416 700 l 1,21,-1
 416 400 l 1,22,-1
 592 400 l 1,23,-1
 592 636 l 1,24,25
 795 739 795 739 891 835 c 0,26,27
 1024 968 1024 968 1024 1136 c 0,28,29
 1024 1339 1024 1339 832 1443 c 0,30,31
 689 1520 689 1520 492 1520 c 0,32,33
 321 1520 321 1520 179 1454 c 1,34,-1
 124 1426 l 1,0,-1
610 0 m 1,35,-1
 406 0 l 1,36,-1
 406 211 l 1,37,-1
 610 211 l 1,38,-1
 610 0 l 1,35,-1
EndSplineSet
EndChar

